<svg xmlns="http://www.w3.org/2000/svg" width="50" height="50" viewBox="0 0 50 50"><defs><style>.a{fill:#414071;stroke:#414071;stroke-width:1.6px;}.b{fill:#cecece;opacity:0;}</style></defs><g transform="translate(-117 -9312)"><g transform="translate(126 9321)"><g transform="translate(1 1)"><path class="a" d="M31.263,31.263H1V1H2.316V29.947H31.263Z" transform="translate(-1 -1)"/></g><g transform="translate(6.921 19.026)"><rect class="a" width="1.316" height="8.947"/></g><g transform="translate(12.842 13.105)"><rect class="a" width="1.316" height="14.868"/></g><g transform="translate(18.763 18.368)"><rect class="a" width="1.316" height="9.605"/></g><g transform="translate(24.684 11.789)"><rect class="a" width="1.316" height="16.184"/></g><g transform="translate(7.118 2.118)"><path class="a" d="M11.221,10.858,10.3,9.937l6.381-6.381L22.01,8.818,28.129,2.7l.921.921L22.01,10.726,16.681,5.4Z" transform="translate(-10.3 -2.7)"/></g><g transform="translate(19.75 1.921)"><g transform="translate(0 0)"><path class="a" d="M34.5,8.716v-5h-5V2.4h6.316V8.716Z" transform="translate(-29.5 -2.4)"/></g></g></g><rect class="b" width="50" height="50" transform="translate(117 9312)"/></g></svg>