<svg xmlns="http://www.w3.org/2000/svg" xmlns:xlink="http://www.w3.org/1999/xlink" width="620" height="360" viewBox="0 0 620 360"><defs><linearGradient id="a" x1="0.477" y1="0.943" x2="0.456" y2="0.161" gradientUnits="objectBoundingBox"><stop offset="0" stop-color="#e8f8ff" stop-opacity="0.537"/><stop offset="1" stop-color="#bedeff"/></linearGradient><linearGradient id="b" x1="0.5" x2="0.5" y2="1" gradientUnits="objectBoundingBox"><stop offset="0" stop-color="#180e46"/><stop offset="0.966" stop-color="#242e7e"/><stop offset="1" stop-color="#0f3106"/></linearGradient><linearGradient id="e" x1="0.5" x2="0.5" y2="1" gradientUnits="objectBoundingBox"><stop offset="0" stop-color="#82d8c6"/><stop offset="1" stop-color="#08d9ae"/></linearGradient><linearGradient id="f" x1="0.5" x2="0.5" y2="1" gradientUnits="objectBoundingBox"><stop offset="0" stop-color="#fcb95e"/><stop offset="1" stop-color="#f9ff5f"/></linearGradient><linearGradient id="g" x1="0.62" y1="0.074" x2="0.332" y2="0.852" gradientUnits="objectBoundingBox"><stop offset="0" stop-color="#a2eb8b"/><stop offset="1" stop-color="#00c46e"/></linearGradient><linearGradient id="h" x1="0.5" x2="0.5" y2="1" gradientUnits="objectBoundingBox"><stop offset="0" stop-color="#f86bc7"/><stop offset="1" stop-color="#ffa04a"/></linearGradient><linearGradient id="i" x1="0.5" x2="0.5" y2="1" gradientUnits="objectBoundingBox"><stop offset="0" stop-color="#9eef8d"/><stop offset="0.396" stop-color="#8be66a"/><stop offset="1" stop-color="#6ed935"/></linearGradient><linearGradient id="l" x1="0.5" x2="0.5" y2="1" gradientUnits="objectBoundingBox"><stop offset="0" stop-color="#ffcb3c"/><stop offset="1" stop-color="#ed7406"/></linearGradient><linearGradient id="m" x1="0.5" x2="0.5" y2="1" gradientUnits="objectBoundingBox"><stop offset="0" stop-color="#eabcff"/><stop offset="1" stop-color="#816aff"/></linearGradient><linearGradient id="n" x1="0.5" x2="0.5" y2="1" gradientUnits="objectBoundingBox"><stop offset="0" stop-color="#39dff5"/><stop offset="1" stop-color="#81e7ff"/></linearGradient><linearGradient id="p" x1="0.5" x2="0.5" y2="1" gradientUnits="objectBoundingBox"><stop offset="0" stop-color="#1d5abc"/><stop offset="1" stop-color="#0d2c5d"/></linearGradient><linearGradient id="r" x1="0.182" y1="-0.413" x2="0.5" y2="1" gradientUnits="objectBoundingBox"><stop offset="0" stop-color="#57fff2"/><stop offset="1" stop-color="#33a9ff"/></linearGradient><linearGradient id="s" x1="0.5" x2="0.5" y2="1" gradientUnits="objectBoundingBox"><stop offset="0" stop-color="#076cac"/><stop offset="1" stop-color="#4646ed"/></linearGradient><linearGradient id="u" x1="0.5" x2="0.5" y2="1" gradientUnits="objectBoundingBox"><stop offset="0" stop-color="#1fc4a2"/><stop offset="1" stop-color="#08d9ae"/></linearGradient><clipPath id="w"><rect width="620" height="360"/></clipPath></defs><g id="v" clip-path="url(#w)"><g transform="translate(9 30.002)"><g transform="translate(0 -0.002)"><path d="M668.708,60.92c-.171-.636,21.475-19.443,22.956-21.155C707.365,21.639,714.6-6.819,745.126,1.48c11.03,3,20.849,11.633,25.874,21.85,3.784,7.7,4.377,19.679,11.03,25.484,7.048,6.134,16.6,1.262,22.345-4.29,7.5-7.252,15.728-16.951,27.379-14.913,20.81,3.643,15.7,40.438,40.549,34.778s38.867-29.2,59.251-24.752,17.77,39.479,29.906,43.3,43.116-11.914,49.286,23.985c3.034,17.656.459,35.3-.324,53.042-.582,13.162,7.612,14.241,16.349,21.886a75.013,75.013,0,0,1,19.617,26.887c6.509,15.23,7.762,32.206,7.24,48.761-.159,5.049-.507,10.22-2.569,14.829-7.777,17.35-42.957,15.524-58.463,15.386-26.824-.243-53.636-3.262-80.187-6.9-53.306-7.264-106.2-17.689-158.71-29.363-11.866-2.638-23.727-5.316-35.536-8.2Z" transform="translate(-468.222 0.002)" fill="#daf5ff"/><path d="M603.477,388.3H0s47.67-62.318,50.068-85.533-12.682-94.5,23.208-99.519,45.646-36.157,56.712-54.937,57.65-21.286,74.272-4.263,22.636,52.877,52.727,47.37,69.931-6.767,79.7,38.762,43.038-.21,79.788,12.184,41.035,38.885,68.264,57.147S597.637,308.81,603.477,388.3Z" transform="translate(0 -92.872)" fill="#daf5ff"/><path d="M249.31,611.274s27.1-30.88,27.561-49.379,8.044-35.524,30.311-41.805c15.908-4.5,59.737,1.814,62.405-9.093s26.65-27.373,47.577-23.589,22.785-33.333,33.944-34.382,61.23,8.194,75.912,8.2,20.738,41.245,34.274,42.273,62.894-12.913,71.978,16.367,9.633,40.9,21.143,44.009,41.73,31.006,42.228,48.908Z" transform="translate(-174.565 -317.146)" fill="url(#a)"/><path d="M1853.121,876.448s.15,5.654-2.638,9.717c-2.638,5.277-1.019,9.684,1.127,10.739,2.546.357,17.254-16.945,14.787-19.958-2.354-2.533-8.557-6-8.557-6Z" transform="translate(-1294.732 -609.831)" fill="#40405a"/><path d="M1621.669,943.61s-4.881,4.731-11.2,5.214c-7.417,1.607-10.529,6.788-9.855,9.789,1.442,2.417,21.475,2.98,29.18.384a4.278,4.278,0,0,0,2.905-4.02,77.632,77.632,0,0,0-1.037-11.06Z" transform="translate(-1120.67 -660.706)" fill="#40405a"/><path d="M1839.825,856s6.23,5.313,6.863,5,4.743-5.169,4.5-5.978-7.339-6.9-7.339-6.9S1838.754,853.392,1839.825,856Z" transform="translate(-1288.125 -593.852)" fill="#f7ab9d"/><path d="M1670.076,903.62s-.3,10.529.525,10.913,8.994.585,9.594-.33.989-12.913.989-12.913S1671.836,900.442,1670.076,903.62Z" transform="translate(-1169.335 -631.002)" fill="#f7ab9d"/><path d="M1746.917,666.67,1725.4,685.312s3.019,12.826,4.8,19.212c4.458-10.886,11.336-20.786,16.259-31.6Z" transform="translate(-1208.109 -466.796)" fill="url(#b)"/><path d="M1755.992,709.4l1.637-21.859c-4.923,10.811-11.8,20.711-16.259,31.6.42,1.517.768,2.671.989,3.2,1.157,2.773,27.5,24.494,30.734,23.8s5.777-7.393,5.777-7.393Z" transform="translate(-1219.291 -481.409)" fill="url(#b)"/><path d="M1661.722,612.206s-19.892,34.289-19.892,35.4,6.455,51.438,6.455,51.438,13.716-1.274,14.25-4.245-3.5-41.194-3.5-41.194,19.386-14.718,27.627-26.9a19.487,19.487,0,0,0,3.2-13.192c-1.028-8.8-1.526-8.964-1.526-8.964S1672.908,599.47,1661.722,612.206Z" transform="translate(-1149.594 -422.6)" fill="url(#b)"/><path d="M1690.182,404.919,1688.89,418.3l1.073,46.716s23.463-12.316,30.047-9.555,1.062-6.158,1.062-9.345.639-26.542-1.91-36.945S1702.372,390,1702.372,390Z" transform="translate(-1182.545 -273.074)" fill="url(#e)"/><path d="M1688.438,546.772l-7.048.831,6.938-1.262a3.062,3.062,0,0,1,.111.432Z" transform="translate(-1177.294 -382.542)" fill="#f09087"/><path d="M1587.48,550.579a5.778,5.778,0,0,1,.171.621l21.358-2.659Z" transform="translate(-1111.539 -384.082)" fill="#d9ecff"/><path d="M1588.387,556.835a6.221,6.221,0,0,1-.057,1l17.9-2.923Z" transform="translate(-1112.134 -388.542)" fill="#d9ecff"/><path d="M1669.986,556.445q.117-.111.225-.234a3.541,3.541,0,0,0,.369-.5l-14.73,1.2Z" transform="translate(-1159.411 -389.102)" fill="#f9b7c0"/><path d="M1620.529,540.765a3.493,3.493,0,0,1-.51,2.18l-.627.051-10.535.861-.7.057-.639.051-2.23.183,2.311-.075.684-.024.779-.024,9.594-.318.782-.024a3.245,3.245,0,0,1-.264.231,4.048,4.048,0,0,1-1.289.693,4.3,4.3,0,0,1-.848.174l-32.679,3.226c.075-.168.144-.33.207-.495a8.177,8.177,0,0,0,.261-.78l4.155-.83-4.035.375c.048-.216.087-.432.114-.647l17.9-2.923-17.844,1.925a5.913,5.913,0,0,0-.141-1.175l21.358-2.659-21.529,2.039a6.507,6.507,0,0,0-.282-.7l3.394-.687-3.6.3c-.108-.195-.225-.387-.357-.579-.1-.147-.207-.3-.324-.441l32.679-3.223a3.828,3.828,0,0,1,4.068,2.533l-.492.09-6.937,1.262,7.048-.83.5-.057C1620.508,540.594,1620.52,540.678,1620.529,540.765Z" transform="translate(-1108.85 -376.337)" fill="#fff"/><path d="M1618.449,539.628a3.985,3.985,0,0,1-.992,3.028l-.084.093a4.345,4.345,0,0,1-.734.636,4.542,4.542,0,0,1-2.144.777l-33.723,3.328-.093-.935,33.723-3.328a3.6,3.6,0,0,0,1.106-.3,3.43,3.43,0,0,0,1.181-.872q.066-.075.126-.153a3.067,3.067,0,0,0,.639-2.183,1.348,1.348,0,0,0-.036-.246,3.042,3.042,0,0,0-.111-.432,3.346,3.346,0,0,0-3.529-2.156l-33.725,3.328-.093-.935,33.726-3.328A4.275,4.275,0,0,1,1618.449,539.628Z" transform="translate(-1106.273 -375.251)" fill="url(#f)"/><path d="M1682.741,493.132l-7.052.83,6.938-1.262A3.031,3.031,0,0,1,1682.741,493.132Z" transform="translate(-1173.303 -344.983)" fill="#d9ecff"/><path d="M1581.78,496.939c.069.207.126.411.174.621l21.355-2.659Z" transform="translate(-1107.548 -346.524)" fill="#d9ecff"/><path d="M1582.694,503.195a6.233,6.233,0,0,1-.054,1l17.9-2.923Z" transform="translate(-1108.15 -350.984)" fill="#d9ecff"/><path d="M1664.293,502.808c.081-.078.156-.156.225-.237a3.521,3.521,0,0,0,.369-.5l-14.727,1.2Z" transform="translate(-1155.427 -351.544)" fill="#d9ecff"/><path d="M1614.842,487.125a3.486,3.486,0,0,1-.51,2.18l-.627.051-10.535.86-.7.057-.639.051-2.228.183,2.311-.075.681-.024.78-.024,9.594-.318.786-.024c-.084.081-.174.159-.264.231a4.076,4.076,0,0,1-1.289.693,4.345,4.345,0,0,1-.849.174l-32.679,3.226c.072-.168.141-.33.2-.495a8.149,8.149,0,0,0,.261-.779l4.155-.83-4.038.375c.048-.216.09-.432.117-.648l17.9-2.923-17.842,1.925a6.151,6.151,0,0,0-.141-1.175l21.355-2.659-21.529,2.039a5.965,5.965,0,0,0-.282-.7l3.394-.687-3.6.3c-.108-.195-.228-.387-.36-.579s-.207-.3-.321-.441l32.679-3.223a3.829,3.829,0,0,1,4.068,2.533l-.495.09-6.938,1.262,7.052-.83.495-.057C1614.815,486.954,1614.842,487.038,1614.842,487.125Z" transform="translate(-1104.866 -338.779)" fill="#fff"/><path d="M1612.778,485.983a3.982,3.982,0,0,1-.99,3.028l-.087.093a4.349,4.349,0,0,1-.734.636,4.543,4.543,0,0,1-2.144.777l-33.714,3.328-.093-.935,33.723-3.328a3.6,3.6,0,0,0,1.106-.3,3.177,3.177,0,0,0,.558-.315,3.249,3.249,0,0,0,.624-.558,1.737,1.737,0,0,0,.126-.153,3.037,3.037,0,0,0,.639-2.183,1.357,1.357,0,0,0-.033-.246,3.049,3.049,0,0,0-.114-.432,3.346,3.346,0,0,0-3.529-2.156l-33.723,3.328-.093-.935,33.723-3.331A4.274,4.274,0,0,1,1612.778,485.983Z" transform="translate(-1102.31 -337.687)" fill="url(#g)"/><path d="M1577.6,532.34l7.075-.57-7.049.126A2.752,2.752,0,0,0,1577.6,532.34Z" transform="translate(-1104.62 -372.34)" fill="#d9ecff"/><path d="M1643.981,518c-.027.213-.042.426-.048.639l-21.464,1.592Z" transform="translate(-1136.038 -362.698)" fill="#d9ecff"/><path d="M1652.635,524.08a6.684,6.684,0,0,0,.249.968l-18.124.654Z" transform="translate(-1144.644 -366.955)" fill="#d9ecff"/><path d="M1579.816,538.06c-.093-.06-.183-.12-.267-.186a4.059,4.059,0,0,1-.459-.42l14.691-1.715Z" transform="translate(-1105.664 -375.12)" fill="#d9ecff"/><path d="M1575.944,517.7a3.472,3.472,0,0,0,.929,2.039l.624-.072,10.493-1.229.7-.081.636-.075,2.222-.258-2.282.378-.672.114-.77.126-9.453,1.574-.774.129a3.332,3.332,0,0,0,.3.177,4.084,4.084,0,0,0,2.266.429l32.679-3.262c-.1-.147-.207-.3-.3-.441a6.19,6.19,0,0,1-.408-.714h-4.236l4.032-.429c-.09-.2-.171-.4-.243-.6l-18.124.654,17.875-1.622a5.79,5.79,0,0,1-.1-1.181l-21.463,1.592,21.511-2.231a5.783,5.783,0,0,1,.141-.74h-3.466l3.583-.4c.066-.21.147-.423.237-.636.069-.165.147-.33.231-.5l-32.679,3.262a3.831,3.831,0,0,0-3.493,3.3h.5l7.049-.126-7.076.57-.5.042A.559.559,0,0,1,1575.944,517.7Z" transform="translate(-1103.445 -357.405)" fill="#fff"/><path d="M1574.285,516.373a3.981,3.981,0,0,0,1.568,2.773l.1.075a4.308,4.308,0,0,0,.849.48,4.539,4.539,0,0,0,2.251.339l33.719-3.364-.093-.938-33.719,3.367a3.5,3.5,0,0,1-1.748-.267,3.354,3.354,0,0,1-.723-.423l-.153-.126a3.055,3.055,0,0,1-1.055-2.015,1.385,1.385,0,0,0-.015-.249,2.739,2.739,0,0,1,.027-.444,3.343,3.343,0,0,1,3.034-2.809l33.723-3.364-.1-.938-33.719,3.367A4.263,4.263,0,0,0,1574.285,516.373Z" transform="translate(-1102.286 -356.026)" fill="url(#h)"/><path d="M331.028,402.424H152.723l-22.3-98.334H308.729Z" transform="translate(-91.319 -212.92)" fill="#ebfbff" opacity="0.68"/><path d="M338.365,391.947H160.06l-22.3-98.337H316.066Z" transform="translate(-96.458 -205.582)" fill="#a7d1ff" opacity="0.53"/><path d="M424.84,463.983,409.73,448.72l1.022,8.994a93.615,93.615,0,0,0,5.861,10.11c1.892,3.139,1.571,6.908,1.892,10.062.129,1.907,1.337,3.3,3.04,4.425C420.619,476.141,422.337,469.581,424.84,463.983Z" transform="translate(-286.889 -314.189)" fill="#fc8190"/><path d="M451.138,519.163l1.355-18.87-.657-.663c-2.5,5.6-4.221,12.157-3.3,18.315.141.093.285.186.432.273Z" transform="translate(-313.886 -349.836)" fill="#e2495b"/><path d="M424.356,503.57c-1.931-1.175-3.334-2.635-3.472-4.7-.3-3.142,0-6.911-1.883-10.053a93.126,93.126,0,0,1-5.861-10.11l2.4,21.026Z" transform="translate(-289.277 -335.188)" fill="#e2495b"/><path d="M480,413.238c-.585,0-1.8,1.22-1.8,1.22s2.5-4.83,2.2-5.31-1.94.9-1.94.9,1.382-2.758.9-2.971c-.342-.153-1.982,1.484-2.89,2.434a.381.381,0,0,1-.654-.234,3.294,3.294,0,0,0-.438-1.67c-.363-.363-1.712.24-2.827,4.458A10.184,10.184,0,0,1,468.909,417a1.172,1.172,0,0,1-1.169-.678c-.156-.276.054-1.37-.123-1.655-.621-1.01-1.3-1.934-1.628-1.754-.585.9-.585,2.545-1.115,3.769.108,3.184,2.336,4.353,2.177,6.05s-9.618,9.795-9.822,12.745-3.745,6.53-1.355,18.87c0,0,9.384-9.336,12.409-18.429a19.264,19.264,0,0,1,1.2-2.884c1.844-3.511,2.252-2.644,3.934-4.14,1.913-1.7,6.689-10.4,6.6-12.739C480.479,414.194,480.59,413.238,480,413.238Z" transform="translate(-318.621 -285.024)" fill="#f7b2a9"/><path d="M1650.626,312.028s-9.1-7.163-.783-11.992c6.131-1.076,7.247,2.15,10.113,2.03s10.631-1.235,11.747,2.231-4.227,12.448-4.227,12.448L1657.33,318.6Z" transform="translate(-1152.751 -209.928)" fill="#1c1564"/><path d="M1695.228,351.669a4.3,4.3,0,0,1-.6-1.451c-.117.228-.18.378-.18.378a3.679,3.679,0,0,1-2.7-.875C1691.894,351.063,1692.724,351.948,1695.228,351.669Z" transform="translate(-1184.548 -244.87)" fill="#f09087"/><path d="M1670.65,340.865c.98-1.139,3.187-4.512.875-6.344-1.871-1.484-3.358.95-3.855,1.931a4.3,4.3,0,0,0,.6,1.451c-2.491.279-3.334-.6-3.5-1.949a2.249,2.249,0,0,1-.372-2.1,9,9,0,0,1,.917-2.431,9.03,9.03,0,0,0,.129-1.364c-2.617.525-6.32,3.874-9.12,2.806a1.172,1.172,0,0,1-.765-.168s-.156,1.418-.249,4.164c-.018.555-2.054,3.493-2.042,4.107,0,.489,1.895-.111,1.931.408a10.043,10.043,0,0,0,.111,1.16,1.736,1.736,0,0,1,1.652.087c3.454,2.2,7.226,2.827,8.793-1.886.3-.3,1.256,0,1.571.315v.117a8.371,8.371,0,0,1-1.121,3.511c-.063.381-.1.77-.126,1.169a1.688,1.688,0,0,1-.018.3c-.021.4-.033.8-.042,1.214v.393c0,.276,0,.549-.021.821a14.732,14.732,0,0,1-.237,2.366,1.145,1.145,0,0,1-.06.279c-.024.09-.042.186-.069.276s-.042.159-.069.234a.361.361,0,0,1-.018.066c-.021.072-.048.141-.072.21v.036c-.033.084-.066.165-.1.246s-.063.147-.093.216-.117.231-.183.342c-.036.06-.072.12-.111.18a4.323,4.323,0,0,1-.519.666,34.524,34.524,0,0,1,.987,6.926l9.984-13.06S1670.755,342.352,1670.65,340.865Z" transform="translate(-1157.604 -231.104)" fill="#ffd0c7"/><path d="M1672.63,326.783a9,9,0,0,1-.129,1.364c.849-1.535,1.8-2.288,1.469-2.7-.426-.534-7.75,4.029-10.46,4.149C1666.31,330.68,1670.013,327.316,1672.63,326.783Z" transform="translate(-1164.774 -227.845)" fill="#f09087"/><path d="M1086.952,326.1s2.24-.558,1.97,1.6-1.574,3.847-3.622,3.127" transform="translate(-759.917 -228.286)" fill="#ffb5a8"/><path d="M1254.87,498.162s3.82-.357,4.827,1.127-2.069,5.364-2.069,5.364l-2.5-4.2Z" transform="translate(-878.648 -348.782)" fill="#ffb5a8"/><path d="M1229.605,507.637s2.47,1.592,2.1,5.529l-19.164-.3,3.451-6.9Z" transform="translate(-849.009 -354.275)" fill="#a6ddf8"/><path d="M1238.39,498.506s3.877-1.433,5.573-.318a3.967,3.967,0,0,1,1.3,4.368C1244.923,503.446,1238.39,498.506,1238.39,498.506Z" transform="translate(-867.109 -348.528)" fill="#ffb5a8"/><path d="M1212.54,311.94v46.318l11.285-5.151V317.115Z" transform="translate(-849.009 -218.417)" fill="#b3e4fd"/><path d="M1121.956,475.318l7.477,14.619s5.786.318,6.743-.531,8.919-8.071,10.3-8.071a6.568,6.568,0,0,1,4.035,1.385,64.7,64.7,0,0,0,6.371,5.2c-.108,1.8-2.866,1.91-4.035,1.274s-4.566-4.107-5.945-3.328-1.7,3-.426,3.541,2.335.708,2.018,1.256-7.219,4.893-8.068,5.379-30.425,0-30.425,0V483.218S1114.956,474.712,1121.956,475.318Z" transform="translate(-777.212 -332.791)" fill="#ffb5a8"/><path d="M1346.484,569.486q.791.4,1.61.761l.642-.069-.642.069a30.278,30.278,0,0,0,4.836,1.709c-1.022-2.581-1.772-4.056-1.772-4.056H1285.14v9.276l62.96-6.929Q1347.276,569.882,1346.484,569.486Z" transform="translate(-899.843 -397.638)" fill="#f4d39a"/><path d="M1352.916,577.439a30.282,30.282,0,0,1-4.836-1.709l-62.96,6.929v57.764h61.461c9.117-11.093,11.938-23.5,11.938-34.583A79.373,79.373,0,0,0,1352.916,577.439Z" transform="translate(-899.829 -403.12)" fill="#f9dea6"/><path d="M1469.385,600.357c0,11.093-2.821,23.478-11.938,34.583H1443.43s31.852-22.186,12.1-67.04h6.458A79.253,79.253,0,0,1,1469.385,600.357Z" transform="translate(-1010.677 -397.638)" fill="#fff"/><path d="M951.936,389.18h19.979v18.327H946.77V394.361A5.181,5.181,0,0,1,951.936,389.18Z" transform="translate(-662.92 -272.5)" fill="#ef515f"/><path d="M1098.477,398.79s4.644,3.343,5.84,6.3,8.122,16.552,8.122,16.552-6.425.081-13.962,9.318S1098.477,398.79,1098.477,398.79Z" transform="translate(-766.798 -279.229)" fill="url(#i)"/><path d="M985.512,375.41s-14.313,6.9-15.89,12.742-3.5,64.657-3.5,64.657h46.5s-4.884-47.987-3.4-52.023-.423-17.518-1.061-18.366-10.379-6.6-10.379-6.6Z" transform="translate(-676.468 -262.858)" fill="url(#i)"/><path d="M1148.35,533.71s.387.582.938,1.256A3.9,3.9,0,0,0,1148.35,533.71Z" transform="translate(-804.064 -373.698)" fill="#f7ab9d"/><path d="M1017.167,488.173c-.522-1.2-.86-2-.86-2s-12.421,7.273-12.184,10c0,0,.938,2.039,2.351,4.671C1009.114,495.752,1011.714,490.721,1017.167,488.173Z" transform="translate(-703.075 -340.411)" fill="#ffb5a8"/><path d="M1062.081,501.437c-.717-1.274-3.981-4.14-5.573-3.94s-5.256,3.3-6.3,3.382-21.886.4-23.172,1.115c-1.3-2.174-3.274-6.572-4.4-9.144-5.454,2.548-8.053,7.579-10.694,12.673,2.521,4.7,6.563,11.3,9.489,11.576,4.566.423,25.427-10.089,25.427-10.089s5.019,2.845,6.53,1.343a1.682,1.682,0,0,0,.381-2c-.552-.675-.938-1.256-.938-1.256a3.9,3.9,0,0,1,.938,1.256c.842,1.031,2.066,2.281,2.884,2,1.355-.465,0-3.253,0-3.253s1.991,3.163,3.424,3.253.48-3.811.48-3.811,4.539,3.823,5.415,2.866S1062.8,502.711,1062.081,501.437Z" transform="translate(-708.558 -345.088)" fill="#ffccc3"/><path d="M975.257,407.732s7.936-2.132,15.155,11.992c4.566,9.981,5.52,11.468,5.52,11.468s-14.61,6.476-16.277,14.226C975.572,438.913,966.842,415.8,975.257,407.732Z" transform="translate(-680.392 -285.41)" fill="url(#i)"/><path d="M1032.46,303.813s-5.238-10.149-1.895-13.758c.95-1.025,1.649-1.817,2.192-2.452a6.629,6.629,0,0,1,7.762-1.745,6.779,6.779,0,0,0,1.727.537c2.812.477,10.4.953,11.465-.956,1.01,2.282-3.927,9.024-6.74,9.768S1032.46,303.813,1032.46,303.813Z" transform="translate(-720.812 -199.746)" fill="#2f2d44"/><path d="M1037.964,321.359c-.3,0-.627.627-1.256.3a1.427,1.427,0,0,0,.734-.863l-.072.123s-2.4-1.754-3-1.355-1.313,1.91.519,4.38c-2.7,1.673-4.059,6.848-4.221,10.589,7.732,8.611,11.045,5.714,12.1,4.11a2.236,2.236,0,0,0,.366-1.37l-.183-3a9.4,9.4,0,0,1-3.745-7.579l3.493,3.493v-.1a14.774,14.774,0,0,0,2.938.986,1.817,1.817,0,0,0,1.991-.845c1.94-3.283,1.565-10.922,1.322-13.974a4.257,4.257,0,0,1-2.2.708C1042.357,317.275,1039.53,316.961,1037.964,321.359Z" transform="translate(-721.666 -221.435)" fill="#ffccc3"/><path d="M1053.087,313.68c0,1.289-1.25,3.6-1.562,4.137a1.428,1.428,0,0,1-.735.863c.629.315.941-.3,1.256-.3,1.571-4.4,4.4-4.083,8.8-4.4a4.259,4.259,0,0,0,2.2-.708c-.066-.806-.12-1.3-.12-1.3C1059.736,314.966,1053.087,312.2,1053.087,313.68Z" transform="translate(-735.753 -218.445)" fill="#ffb5a8"/><path d="M1059.17,351.1a9.4,9.4,0,0,0,3.745,7.579l-.252-4.086Q1060.917,352.845,1059.17,351.1Z" transform="translate(-741.621 -245.836)" fill="#ffb5a8"/><path d="M319.1,394.966c-4,1.43-5.918,8.829-4.818,14.649l18.651-1.2C331.01,400.515,327.263,392.334,319.1,394.966Z" transform="translate(-219.844 -276.199)" fill="#0e0e17"/><path d="M320.723,342.027c.39-5.939-4.674-7.693-6.134-6.914s-8.179.681-14.022,1.85-8.095,7.5-7.4,15.092-3.115,16.361-3.115,16.361l7.48-.48c-1.1-5.819.818-13.219,4.818-14.649,8.161-2.632,11.908,5.549,13.833,13.446l2.6-.168-2.728-12.541,2.051-3.244S320.334,347.966,320.723,342.027Z" transform="translate(-203.09 -234.52)" fill="#171826"/><path d="M1049.521,854.315H867.1a19.884,19.884,0,0,1-15.242-7.564,28.542,28.542,0,0,1-6.314-18.27c0-14.271,9.651-25.841,21.556-25.841h182.425C1041.133,819.366,1041.588,836.626,1049.521,854.315Z" transform="translate(-592.039 -562.001)" fill="#fff"/><path d="M530.468,544.6s-8.946,8.515-8.416,17.758a208.632,208.632,0,0,1-5.732,28.029s8.494,10.961,14.969,12.223S530.468,544.6,530.468,544.6Z" transform="translate(-361.522 -381.323)" fill="url(#l)"/><path d="M578.369,440.011a14.487,14.487,0,0,1,2.255-3.99c1.274-1.352,2.15-5.654,1.274-8.281-.72-2.159-2.1-8.967-8.065-10.194a8.886,8.886,0,0,0-7.687,2.2,7.14,7.14,0,0,1-3.706,1.874,12.261,12.261,0,0,0-2.728,1c-3.406,1.709-3.733,2.6-3.376,2.818,1.754,1.061,2.866-1.142,3.424-.6s-.953,6.371,2.947,9.237S578.369,440.011,578.369,440.011Z" transform="translate(-389.462 -292.252)" fill="#171826"/><path d="M569.964,472.849s-2.237-.558-1.967,1.6,1.574,3.85,3.622,3.127S569.964,472.849,569.964,472.849Z" transform="translate(-397.691 -331.039)" fill="#ffd6ce"/><path d="M1048.873,849.844H860.593c-6.5,0-12.61-3.034-17.206-8.542a32.119,32.119,0,0,1-7.126-20.624c0-16.085,10.916-29.168,24.333-29.168h188.28v6.659H860.593c-10.355,0-18.78,10.1-18.78,22.51a24.778,24.778,0,0,0,5.5,15.914,17.259,17.259,0,0,0,13.279,6.6h188.28Z" transform="translate(-585.542 -554.208)" fill="url(#m)"/><path d="M442.7,875.83q.393,1.871.6,3.751l116.626-3.253Z" transform="translate(-309.974 -613.248)" fill="#e4f6f8"/><path d="M443.174,909.549a42.238,42.238,0,0,1-.833,5.861l98.1-6.821Z" transform="translate(-309.722 -636.186)" fill="#e4f6f8"/><path d="M992.973,892.886a22.574,22.574,0,0,0-.375-2.806l-40.8,3.649Z" transform="translate(-666.442 -623.225)" fill="#e4f6f8"/><path d="M885.68,782.028h10.056a19.59,19.59,0,0,0,10.032-2.755l11.144-8.3-6.626-6.458L885.68,781.3Z" transform="translate(-620.145 -535.302)" fill="#1e227c"/><path d="M885.67,947c.462-.4.9-.821,1.337-1.259a21.553,21.553,0,0,0,2.252-2.746L809.18,941.51Z" transform="translate(-566.58 -659.236)" fill="#e4f6f8"/><path d="M540.573,865.007l-31.957-.6,31.957.6-26.011-1.865,26.011,1.865,80.079,1.481a22.006,22.006,0,0,0,3.9-12.574c0-.51-.024-1.016-.057-1.52l-41.161.842-20.567,1.838,20.567-1.838-37.98.777,37.98-.777,40.8-3.649a21.19,21.19,0,0,0-20.6-17.338H425.56a47.092,47.092,0,0,1,3.13,6.413l19.53.276,10.02-1.118-10.02,1.118,10.976.156-10.976-.156-18.678,2.1a40.24,40.24,0,0,1,1.157,4.29l117.225.5L577.533,845l-29.609.824,30.581.129-30.581-.129L431.3,849.078a39.039,39.039,0,0,1,.129,7.031l97.27-.959,26.851-1.868L528.7,855.149l27.807-.276-27.807.276-98.107,6.809c-.267,1.25-.6,2.5-.968,3.757l21.976.144,8.871-.962-8.871.962,70.98.471-70.98-.471-22.848,2.482a58.8,58.8,0,0,1-3.19,7.237H603.533a20.576,20.576,0,0,0,13.53-5.1Z" transform="translate(-297.973 -582.733)" fill="#fffcfc"/><path d="M406.52,871.858H590.2A23.238,23.238,0,0,0,606.99,864.7a24.659,24.659,0,0,0,6.956-17.293c0-13.491-10.649-24.452-23.739-24.452H406.52v5.579H590.2c10.1,0,18.318,8.467,18.318,18.888a19.02,19.02,0,0,1-5.367,13.345,17.928,17.928,0,0,1-12.952,5.529H406.52Z" transform="translate(-284.642 -576.221)" fill="url(#n)"/><path d="M431.141,984.674a10.472,10.472,0,0,1-10.08-1.973,16.488,16.488,0,0,0,.264,3.3c1.55,2.21,8.97,1.865,14.937.3a53.854,53.854,0,0,1,13.434-1.832c1.745,0,2.866-.228,3.16-1.2a10.534,10.534,0,0,0,.264-2.287,11.133,11.133,0,0,1-3.133.845C443.392,983.417,437.108,982.785,431.141,984.674Z" transform="translate(-294.821 -686.873)" fill="#853220"/><path d="M938.041,858.09s-5.732.318-6.689,3.187.213,17.518,4.989,17.623S938.041,858.09,938.041,858.09Z" transform="translate(-651.909 -600.826)" fill="#3275ab"/><path d="M457.916,939.655a9.1,9.1,0,0,0,3.349-4.575,75.413,75.413,0,0,0-9.345,3.409s-6.035,2.881-8.32,3.541C447.516,945.55,454.093,942.6,457.916,939.655Z" transform="translate(-310.605 -654.734)" fill="#c95b43"/><path d="M451.75,933.567c-.552-1.268-3.256-.956-6.26-.144A9.1,9.1,0,0,1,442.141,938c-3.823,2.941-10.4,5.882-14.316,2.374a4.368,4.368,0,0,1-.519.123c-1.451.207-6.065,2.009-6.236,8.41a10.471,10.471,0,0,0,10.08,1.973c5.966-1.886,12.25-1.256,18.846-2.827a11.13,11.13,0,0,0,3.133-.845C453.293,943.263,452.829,936.022,451.75,933.567Z" transform="translate(-294.829 -653.077)" fill="#9f4835"/><path d="M451.874,940.109c.033-1.613.36,6-4.782,7.8-4.992,1.739-16.936,3.6-17.482,7.6" transform="translate(-300.809 -658.099)" fill="none" stroke="#853220" stroke-miterlimit="10" stroke-width="2.16"/><path d="M-7119-10638.4c2.718-8.444,2.922-13.7,3.3-22.139.043-1,.062-2.245.062-3.7,9.7,2.105,20,1.232,29.986-1.1-9.99,2.332-20.28,3.2-29.979,1.093.005-3.884-.113-9.187-.113-14.581l-.014,0c-.016-9.863.3-20.033,2.258-22.4a32.7,32.7,0,0,1,8.522-6.874l14.09-3.9s20.367,10.262,22.066,13.657c.912,1.277,1,8.767.7,18.044h0c-.092,3.069-.234,6.341-.393,9.638-.758,15.717-2.07,32.261-2.07,32.261S-7080.459-10642.706-7119-10638.4Z" transform="translate(7282.438 10864.514)" fill="url(#l)"/><path d="M505.269,810.86l5.079-.228c-2.842-2.662-5.762-5.25-8.518-8A56.974,56.974,0,0,0,505.269,810.86Z" transform="translate(-351.377 -561.994)" fill="#2f2f5a"/><path d="M481.488,759.705c10.05-5.966,20.414-9.42,30.781-15.074a9.209,9.209,0,0,0,2.231-2.479l-3.751-1.271-34.835,1.592-1.847,2.4-25.538,4.008a5.813,5.813,0,0,0-4.824,6.746l8.218,46.887s5.732,1.379,8.865.213,5.519-3.133,6.953-2.815,1.5-.426,1.5-.426l-4.992-31.849h.261a55.98,55.98,0,0,1-3.439-8.23c2.755,2.752,5.675,5.34,8.518,8l6.083-.27A11.841,11.841,0,0,1,481.488,759.705Z" transform="translate(-310.618 -518.757)" fill="url(#p)"/><path d="M589.318,745.12a9.209,9.209,0,0,1-2.231,2.48c-10.367,5.654-20.732,9.108-30.781,15.074a11.849,11.849,0,0,0-5.816,7.42l4.764-.213,23.574-4.215L597.3,747.83Z" transform="translate(-385.448 -521.726)" fill="#2f2f5a"/><path d="M669.383,680.52c.189,1.862.336,3.019.336,3.019a9.962,9.962,0,0,1-1.028.345c2.4.726,4.8,1.835,7.447,1.835C673.709,684.262,671.652,682.235,669.383,680.52Z" transform="translate(-468.211 -476.493)" fill="#bf711f"/><path d="M669.011,575.176s-1-12.406-5.424-21.526a1.8,1.8,0,0,0-.723-.9s-9.252,5.771-11.8,13.509c-1.937,5.891-.929,18.888-.336,24.8,2.264,1.715,4.32,3.739,6.755,5.2-2.641,0-5.061-1.109-7.447-1.835a18.019,18.019,0,0,1-7.252.5c2.123,4.671,2.971,8.395-.744,9.981,5.627.956,6.6,1.379,8.395,2.231s13.168,3.5,15.608-3.718C670.174,593.545,669.011,575.176,669.011,575.176Z" transform="translate(-449.551 -387.03)" fill="url(#l)"/><path d="M580.074,823.135c-1.61-3.76,1.6-7.057,2.758-10.493l-2.635-8.793-3.106-1.088s-6.152,1.145-8.371,3.646a3.683,3.683,0,0,0,.369,1.34c3.139,7.222,1.256,14.763,3.139,22.3a7.285,7.285,0,0,0,2.98,4.335c3.064-1.157,5.319-5.777,6.788-10A2.15,2.15,0,0,1,580.074,823.135Z" transform="translate(-398.213 -562.085)" fill="#9f4835"/><path d="M608.313,835.74c-1.16,3.43-4.368,6.728-2.758,10.493a2.15,2.15,0,0,0,1.916,1.247,60.217,60.217,0,0,0,2.075-7.633Z" transform="translate(-423.694 -585.177)" fill="#c95b43"/><path d="M570.351,838.56c-1.883-7.537,0-15.077-3.139-22.3a3.681,3.681,0,0,1-.369-1.34,2.8,2.8,0,0,0-.786,1.742c-.159,3.718,1.751,7.432,1.433,9.183s-3.238,16.618,3.981,17.308a4.132,4.132,0,0,0,1.859-.258A7.285,7.285,0,0,1,570.351,838.56Z" transform="translate(-396.342 -570.599)" fill="#853220"/><path d="M467.87,605.8s4.02.126,6.011-1.625c0,0,8.29.929,9.684,4.671,0,0,12.952-5.732,21.02-1.751l.818,2.848-13.159,4.971-12.619.429-5.744-5.049Z" transform="translate(-327.598 -423.041)" fill="#efedff"/><path d="M499.267,612.484l8.068,28.668-20.5.237s-2.7,1.019-3.6-.765l-9.864-4.131L465.58,608.61l12.466,5.256s2.584,1.91,4.815.078C485.493,613.989,499.267,612.484,499.267,612.484Z" transform="translate(-325.995 -426.143)" fill="#41378c"/><path d="M577.94,616.2s2.839-.926,3.715-2.282l8.718,30.419-4.365.531Z" transform="translate(-404.668 -429.861)" fill="#fff"/><path d="M858.49,688.4a7.9,7.9,0,0,0,.878,0s-.039.624-.12,1.544a100.769,100.769,0,0,0,20.774-13.078C873.16,680.906,866.114,685.822,858.49,688.4Z" transform="translate(-601.107 -473.938)" fill="#389bcb"/><path d="M948.628,597.686a8.668,8.668,0,0,0,1.577-.552c3.142-1.571,4.4-5.969,3.142-9.111a15.617,15.617,0,0,0-6.62-8.883c2.965,4.914,6.944,11.315,2.845,14.865-3.334,2.779-7.894,2.854-12.382,2.614,3.34.369,6.665,1.58,9.894,1.331l.525-2.491Z" transform="translate(-656.212 -405.508)" fill="#389bcb"/><path d="M933.111,637.2a16.327,16.327,0,0,0-1.751-.1C931.942,637.136,932.526,637.172,933.111,637.2Z" transform="translate(-652.13 -446.091)" fill="#ef515f"/><path d="M873.468,463.009s-.162-3.487,3.661-8.095,6.05-6.41,6.6-12.142,2.153-11.735,12.451-10.778c7.642.744,12.82,3.451,12.607,4.83s-4.668,5.84-4.671,7.753-1.052,16.732.57,19.964S873.468,463.009,873.468,463.009Z" transform="translate(-611.593 -302.407)" fill="#1c1564"/><path d="M856.851,559.81c-.6-.03-1.169-.066-1.751-.1a16.311,16.311,0,0,1,1.751.1c4.5.24,9.048.165,12.382-2.614,4.1-3.55.12-9.951-2.845-14.865a15.244,15.244,0,0,0-2.18-1.154,15.244,15.244,0,0,1,2.18,1.154c-.447-.737-.87-1.442-1.235-2.1.366.654.789,1.358,1.235,2.1a15.618,15.618,0,0,1,6.617,8.9c1.256,3.142,0,7.54-3.142,9.111a8.65,8.65,0,0,1-1.577.552l6.962,15.119,1.67-26.833-3.5-5.735s-2.548-11.225-5.337-13.614-8.5-2.791-8.5-2.791l-10.757-.465s-12.184,2.072-16.259,5.169l-.114.09a3.094,3.094,0,0,0-1.13,1.448s-16.139,37.677-4.884,46.707a10.116,10.116,0,0,0,6.818,3.181c7.624-2.581,14.67-7.5,21.532-11.522a100.533,100.533,0,0,1-20.774,13.078c-.2,2.2-.636,6.116-1.367,7.294-1.037,1.673-1.037,5.891-1.037,5.891l33.045-17.923,1.592-16.555.486-2.288C863.515,561.39,860.19,560.179,856.851,559.81Zm-2.378,4.3a101.693,101.693,0,0,1-23.871,1.268c7.537-3.142,10.676-12.25,8.793-19.488a36.458,36.458,0,0,0-3.565-8.5c1.154,1.8,2.4,3.532,3.565,5.358,1.571,2.512,2.827,5.34,1.883,8.167-1.7,3.96-3.139,8.431-2.261,12.952,5.513,1.142,11.243-.678,16.711-.39a2.845,2.845,0,0,0,.3,1.571C855.414,564.733,855.1,564.106,854.473,564.106Z" transform="translate(-575.869 -368.699)" fill="url(#r)"/><path d="M849.65,590.672a101.66,101.66,0,0,0,23.871-1.256c.627,0,.941.627,1.568.942a2.845,2.845,0,0,1-.3-1.571c-5.469-.3-11.2,1.532-16.711.39a14.378,14.378,0,0,0,.378,1.5,14.394,14.394,0,0,1-.378-1.5,15.241,15.241,0,0,1-1.5-.39,15.238,15.238,0,0,0,1.5.39c-.878-4.521.564-8.994,2.26-12.952.944-2.827-.3-5.654-1.883-8.167-1.163-1.826-2.4-3.568-3.565-5.358a36.461,36.461,0,0,1,3.559,8.485C860.326,578.41,857.187,587.518,849.65,590.672Z" transform="translate(-594.917 -393.997)" fill="#389bcb"/><path d="M1075.966,576.33,1022,581.253v59.233h44.276S1092.024,621.271,1075.966,576.33Z" transform="translate(-715.595 -403.54)" fill="#f9dea6"/><path d="M1075.264,570.08H1022v6.8l53.966-4.923C1075.729,571.333,1075.5,570.713,1075.264,570.08Z" transform="translate(-715.595 -399.164)" fill="#f4d39a"/><path d="M978.08,796.31l-6.35,34.874s8.494-11.89,17.791-22.654a16.047,16.047,0,0,1-3.2-.9C981.534,805.667,979.762,800.987,978.08,796.31Z" transform="translate(-680.396 -557.568)" fill="#1e227c"/><path d="M996.365,701.777l-32.9-4.377,8.826,29.654c1.682,4.677,3.454,9.357,8.245,11.318a16.048,16.048,0,0,0,3.2.9c2.557-2.956,5.172-5.831,7.69-8.35C1003.108,719.247,996.365,701.777,996.365,701.777Z" transform="translate(-674.613 -488.313)" fill="#1e227c"/><path d="M929.5,651.727s-3.5,3.873-.48,7.27c1.754.534,6.053-2.015,6.9-1.643a3.6,3.6,0,0,1,1.592,2.282c.051.531-.558,1.976.426,2.018s1.5-1.382,1.5-1.382.69,1.5,1.433.267,3.025-7.8,3.025-7.8-1.22-1.964-1.859-1.964-4.884,1.646-5.945,1.538S929.5,651.727,929.5,651.727Z" transform="translate(-649.627 -455.67)" fill="#ffd6ce"/><path d="M936.73,785.031a73.417,73.417,0,0,0,7.8-4.929l-.036.246,2.027-3.238C942.7,778.951,938.949,781.409,936.73,785.031Z" transform="translate(-655.89 -544.125)" fill="#1e227c"/><path d="M903.838,712.12c-1.274-6.65-5.256-8.563-5.256-8.563L880.555,701l-30.47,19.041s-4.917,13.566,4.767,17.5a11.423,11.423,0,0,0,8.739-.135,116.566,116.566,0,0,0,11.594-5.666c2.219-3.622,5.969-6.08,9.777-7.921l1.115-1.8-1.115,1.8q.9-.438,1.8-.831-.9.4-1.8.831l-2.027,3.238-6.65,47.052a26.729,26.729,0,0,1,12.316-3.184C891.414,759.619,905.112,718.77,903.838,712.12Z" transform="translate(-594.348 -490.833)" fill="#2c309f"/><path d="M956.08,934.456a2.553,2.553,0,0,1,.3-.192c-2.051-.69-3.81-1.436-4.428-2.44-1.565-2.548-10.325.081-12.316,3.184,0,0-.162.669-.336,1.691a11.949,11.949,0,0,0,2.342.6C946.972,938.227,951.682,937.6,956.08,934.456Z" transform="translate(-657.689 -651.735)" fill="#f7ab9d"/><path d="M938,963.768c.165,2.446.9,4.671,2.962,5.193,2.548,0,22.534-.4,22.534-.4s1.736-4.371,1.292-7.462C956.777,966.766,945.984,968.266,938,963.768Z" transform="translate(-656.779 -672.953)" fill="#3275ab"/><path d="M955.387,942.37a2.559,2.559,0,0,0-.3.192c-4.4,3.142-9.108,3.769-14.448,2.827a11.948,11.948,0,0,1-2.341-.6,26.155,26.155,0,0,0-.372,5.864c8,4.5,18.792,2.974,26.788-2.668a3.807,3.807,0,0,0-.9-2.1C962.361,944.358,958.532,943.428,955.387,942.37Z" transform="translate(-656.705 -659.838)" fill="#58a9e0"/><path d="M969.6,480.872a1.25,1.25,0,0,1,1.667,1.382c-.054,1.859-2.536,3.772-2.536,3.772l-.33-3.4Z" transform="translate(-678.065 -336.663)" fill="#f0b9ae"/><path d="M974.087,454s1.406,6.686,2.282,8.6,1.334,3.175-.051,7.384c-.9,2.752-4.407,6.716-4.407,6.716s8.056-5.4,5.792-14.091-2.264-8.6-2.264-8.6Z" transform="translate(-680.523 -317.886)" fill="#1c1564"/><path d="M1686.812,542.34a3.252,3.252,0,0,1-1,1.415,11.249,11.249,0,0,1-1.316.561c1.931-.243,3.775-.783,5.618-1.2A5.148,5.148,0,0,1,1686.812,542.34Z" transform="translate(-1179.471 -379.741)" fill="#f4ad9f"/><path d="M1618.884,521.23a39.665,39.665,0,0,1-1.939,6.329,5.146,5.146,0,0,0,3.3.782c-1.844.411-3.688.95-5.619,1.2-3.82,1.442-13.641,4.431-13.641,4.431a6.6,6.6,0,0,0-3.172-1.607c-1.7-.213-1.181.12-2.773-1.154s-2.782-2.431-3.4-1.5c-.255.393,1.454,3.124,2.7,4.848a.9.9,0,0,1-.731,1.421,46.4,46.4,0,0,1-7.681-.525,1.07,1.07,0,0,0-.977.243c-.84.8.9,2.1.9,2.1a1.4,1.4,0,0,0,.531,1.5c.8.531.366,1.565,1.853,2.042s.743,1.169,2.866,1.274,8.359-1.262,10.271-1.2,21.886-1.67,25.163-4.7a32.134,32.134,0,0,0,5.04-6.911C1628.918,525.322,1623.645,523.017,1618.884,521.23Z" transform="translate(-1109.604 -364.96)" fill="#ffd0c7"/><path d="M1699.852,510.519a12.4,12.4,0,0,0-1.172,3.013c4.761,1.8,10.035,4.092,12.682,8.557.951-1.649,1.559-2.881,1.559-2.881S1712.114,508.367,1699.852,510.519Z" transform="translate(-1189.4 -357.262)" fill="#f4ad9f"/><path d="M1196.474,570.89s7.006.956,10.035,2.072,28.182,28.665,28.182,28.665l-9.876,13.7-21.5-21.182-7.5-18.633Z" transform="translate(-837.302 -399.731)" fill="url(#s)"/><path d="M1316.84,658.876c-.03-.1-.063-.195-.1-.3-.666-1.571-1.907-3.787-3.727-4.14-9.636-2.15-22.3,19.272-22.3,19.272l-.795,1.352,7.633.18C1300.572,666.554,1307.873,658.181,1316.84,658.876Z" transform="translate(-903.19 -458.123)" fill="#f9bb39"/><path d="M1315.38,685.878l10.439.243,8.542-14.034a3.151,3.151,0,0,0,.3-2.581C1325.7,668.81,1318.4,677.184,1315.38,685.878Z" transform="translate(-921.017 -468.753)" fill="#ad9b74"/><path d="M1182.79,724.29h78.52a1.745,1.745,0,0,1,1.745,1.745v3.3a1.745,1.745,0,0,1-1.745,1.745h-78.52V724.29Z" transform="translate(-828.179 -507.141)" fill="#843528"/><path d="M1282.686,358.255H1212.53c8.637-18.588,9.894-34.5,0-46.315h70.1a7.2,7.2,0,0,1,7.049,5.786,86.6,86.6,0,0,1,.045,34.748,7.2,7.2,0,0,1-7.042,5.78Z" transform="translate(-849.002 -218.417)" fill="#fff"/><rect width="25.957" height="2.881" rx="1.441" transform="translate(395.808 116.68)" fill="#a6dcf7"/><path d="M1142.289,636.11H1129.76c29.345-27.693,14.814-61.239,12.76-65.562-.15-.3-.231-.468-.231-.468h8.829c.06.156.12.3.174.468C1168.756,616.5,1142.289,636.11,1142.289,636.11Z" transform="translate(-791.048 -399.164)" fill="#fff"/><path d="M975.657,579.53,963.47,610.6l1.685.162,12.115-31.009Z" transform="translate(-674.613 -405.781)" fill="#6a60b7"/><path d="M1020.207,585.573l-39-5.313L969.09,611.269l37.209,3.556Z" transform="translate(-678.548 -406.292)" fill="#41378c"/><path d="M1002.364,686.868v5.466l-38.894-3.448V683.15Z" transform="translate(-674.613 -478.335)" fill="#574da8"/><path d="M922.761,683.15l-17.431,8.919,1.835,4.527,15.6-7.711Z" transform="translate(-633.904 -478.335)" fill="#29216c"/><path d="M374.751,388.472s1.868-1.421,2.306-.18-2.746,4.458-2.746,4.458Z" transform="translate(-262.088 -271.522)" fill="#f09087"/><path d="M361.229,544.358a57.68,57.68,0,0,1-25.969-.5c7.234,5.894,16.522,8.131,25.727,8.661C360.795,548.723,360.786,545.4,361.229,544.358Z" transform="translate(-234.746 -380.805)" fill="#e84357"/><path d="M314.515,467.141a.744.744,0,0,1,.18-.276c1.592-1.355,4.563-1.946,4.353-5.1s-6.8-22.267-8.176-23.646-11.893-4.542-11.893-4.542H286.786s-17.32,4.965-17.959,8.9,0,47.481,0,47.481H315.49s-.884-8.044-1.217-14.649c-9.2-.531-18.492-2.767-25.727-8.661A57.729,57.729,0,0,0,314.515,467.141Z" transform="translate(-188.032 -303.588)" fill="#ef515f"/><path d="M235.456,584.45l-1.376,10.562h17.731l1.64-6.059C249.064,584.036,241.923,582.486,235.456,584.45Z" transform="translate(-163.901 -408.647)" fill="#f7ab9d"/><path d="M256.665,579.479l.378-1.4s-3.718-10.934-17.839-7.219l-.534,4.113C245.137,573.012,252.278,574.562,256.665,579.479Z" transform="translate(-167.115 -399.173)" fill="#ef515f"/><path d="M601.045,494.62c-1.6,3.2-5.457,3.9-8.694,5.2a2.4,2.4,0,0,0,.414-.018l1.142-.153a16.756,16.756,0,0,0-1.967,3.091C595.948,501.045,599.927,498.865,601.045,494.62Z" transform="translate(-414.471 -346.328)" fill="#f0b9ae"/><path d="M602.808,445.245a5.068,5.068,0,0,1,2.635,3.163c-.3-2.515-1.451-4.152-4.5-4.119,0,0-2.4.159-2.494.639a9.438,9.438,0,0,1-1.2,4.008,6.162,6.162,0,0,1-.093.708C599.361,448.073,599.987,443.989,602.808,445.245Z" transform="translate(-418.126 -311.086)" fill="#f0b9ae"/><path d="M590.49,457.811a4.4,4.4,0,0,0,2.329-5.591.77.77,0,0,0-.246-.375c-1.316-1.073-2.584,1.928-3.319,4.107a27.882,27.882,0,0,0,.2-5.861,5.069,5.069,0,0,0-2.635-3.163c-2.827-1.256-3.454,2.827-5.651,4.4a6.146,6.146,0,0,0,.093-.708,2.479,2.479,0,0,1-1.2.926,33.69,33.69,0,0,0-.722-3.682c-2.542.192-4.569,3.391-5.007,6.17l3.4,10.52a2.47,2.47,0,0,0,2.264,1.709c3.244-1.292,7.1-2,8.694-5.2-1.118,4.245-5.1,6.425-9.111,8.122a.753.753,0,0,0-.051.519c.318.636,4.14,7.324,11.992,0,2.335-3.079,2.335-2.336,2.335-3.715S590.277,460.995,590.49,457.811Z" transform="translate(-402.141 -312.769)" fill="#ffd6ce"/><path d="M578.741,448.658a1.319,1.319,0,0,0-1.454-.83c-1.577.045-3.3,2.515-3.763,4.692a3.937,3.937,0,0,0,.123,2.033l.087.276C574.172,452.049,576.2,448.85,578.741,448.658Z" transform="translate(-401.521 -313.563)" fill="#f0b9ae"/><path d="M613.34,506.18s-1.379,5.678-4.59,6.848" transform="translate(-426.241 -354.422)" fill="#f0b9ae"/><path d="M605.17,683.044s-1.595-2.7-3.067-3-5.295-.039-6.131-.716-1.313-1.073-1.592-.318a3.238,3.238,0,0,0,1.433,3.184c1.115.555,4.419.441,4.218,1.514a8.3,8.3,0,0,1-6.41,2.231c-3.265-.12-5.214-1.433-5.295-.836a3.855,3.855,0,0,0,2.072,3c.438.6,1,1.751,2.228,2.069,0,0,.558,2.033,1.832,2.509a9.441,9.441,0,0,0,9.969.372C608.273,690.713,607.079,688.048,605.17,683.044Z" transform="translate(-411.937 -475.15)" fill="#ffd6ce"/><path d="M592.885,832.35s-5.621,2.869-6,6.938,1.259,8.865-3.379,13.689" transform="translate(-408.568 -582.803)" fill="none" stroke="#853220" stroke-miterlimit="10" stroke-width="2.16"/><path d="M472.163,650.71a7.27,7.27,0,0,0,.264,2.719c.393.57.4,1.667.7,2.1a3.485,3.485,0,0,0,.878.789s.57,1.316,1.1,1.535,1.316,1.01,1.622,1.1a2.7,2.7,0,0,0,2.324.219c1.007-.528,2.809-6.1,2.5-6.359s-2.719,2.659-3.025,2.228,2.15-4.2,1.448-4.5-3.334,2.677-3.775,2.677,3.775-5.615,3.073-6.275-4.3,3.3-4.3,3.3,1.886-4.6,1.316-4.866-1.976,2.234-1.976,2.234l.045-2.587S471.638,648.081,472.163,650.71Z" transform="translate(-330.557 -451.636)" fill="#ffd6ce"/><path d="M654.149,741.54c-2.467,9.474-25.883,9.555-29.082,9.315s-17.359,5.493-19.35,7.085-5.972.878-6.449-3.34c.519-5.346-1.727-7.162-3.6-8.736-.138-.114-.27-.225-.4-.339h0c-1.907-1.673,1.5-3.346,1.5-3.346s35.677-18.144,49.091-23.838a6.164,6.164,0,0,1,6.551,1.037,5.354,5.354,0,0,1,.765.839,4.863,4.863,0,0,1,.3.414C656.608,725.644,656,734.423,654.149,741.54Z" transform="translate(-416.4 -502.616)" fill="url(#p)"/><path d="M963.368,451.142c-.051-.336-.084-.525-.084-.525-1.619-1.8-1.8-2.653-2.92-4.8-.258.408-.516.8-.774,1.175A6.31,6.31,0,0,0,963.368,451.142Z" transform="translate(-671.896 -312.158)" fill="#f0b9ae"/><path d="M921.6,449.72c-.393.576-.785,1.115-1.172,1.619a16.27,16.27,0,0,1-9.174,8.074c.267-.537.6-1.121.929-1.739-.411-.567-1.2-1.355-2.153-.929-2.7,1.514-.318,3.5.956,6.053-1.115,8.362-2.947,8.362-5.654,11.627a14.231,14.231,0,0,0,10.988,11.624l2.231-4.764a32.323,32.323,0,0,1-.932-8c-3.148-1.058-3.763-4.977-3.226-8.2a33.742,33.742,0,0,0,3.244,3.943v-.372c1.169.741,3.718.159,3.718.159,5.714-1.328,4.4-12.382,4.011-14.924A6.365,6.365,0,0,1,921.6,449.72Z" transform="translate(-633.904 -314.889)" fill="#ffd6ce"/><path d="M934.254,455.12c-4.164,5.4-7.927,6.839-7.927,6.839a4.061,4.061,0,0,0-.318-.5c-.318.618-.663,1.2-.929,1.739A16.27,16.27,0,0,0,934.254,455.12Z" transform="translate(-647.732 -318.67)" fill="#f0b9ae"/><path d="M935.146,500.91c-.537,3.226.078,7.144,3.226,8.2-.042-1.919,0-3.927.03-4.632a29.887,29.887,0,0,1-3.256-3.571Z" transform="translate(-654.66 -350.732)" fill="#f0b9ae"/><path d="M366.276,361.425a2.03,2.03,0,0,0,1.445.432v-.18c-1.826-1.241-1.313-3.358-3.3-5.7a3.106,3.106,0,0,1-.564.959C365.047,358.085,365.215,360.1,366.276,361.425Z" transform="translate(-254.771 -249.253)" fill="#f09087"/><path d="M336.7,363.637c-1.061-1.328-1.229-3.328-2.4-4.5a3.757,3.757,0,0,1-1.025.812c-.195.318-.4.534-.66.534-5.34.941-4.4,5.025-6.6,8.793a.92.92,0,0,1-.141-.186c-.684.1-2.89-4.614-4.014-2.294-1.169,2.4,2.117,4.089,3.361,5.549s-1.316,10-1.316,10,3.3,4.9,5.7,5.552,6-6.134,6-6.134l-.054-.186a6.594,6.594,0,0,1-2.2-.9c-2.881-1.727-6.05-3.457-6.917-7.2,2.449,1.9,4.9,3.55,7.834,3.727l-.054-.189a10.589,10.589,0,0,0,2.045-.3c1.223-.273,1.814-11.147,1.889-12.676A2.03,2.03,0,0,1,336.7,363.637Z" transform="translate(-225.192 -251.466)" fill="#f7ab9d"/><path d="M342.577,362.424c.258,0,.465-.216.66-.534-1.88,1.046-4.638.9-5.277,1.223-.875.438-1.46,7.375-2.045,7.888a.138.138,0,0,1-.075.03.919.919,0,0,0,.141.186C338.179,367.448,337.237,363.365,342.577,362.424Z" transform="translate(-235.152 -253.392)" fill="#f09087"/><path d="M337.67,407c.866,3.745,4.035,5.475,6.917,7.2a6.6,6.6,0,0,0,2.2.9l-1.334-4.563C342.515,410.37,340.119,408.913,337.67,407Z" transform="translate(-236.433 -284.977)" fill="#ef515f"/><rect width="156.051" height="7.219" rx="3.61" transform="translate(303.779 163.939)" fill="#843528"/><path d="M1150.423,530.944l-.213-.675,14.442-4.374,42.468-1.745v6.794Z" transform="translate(-805.366 -367.004)" fill="#a6ddf8"/><path d="M1338.784,457.374v-3.927s18.633-11.693-3.184-34.178c10.883-.426,19.907,0,19.907,0s12.262,18.121,6.848,33.162v4.953Z" transform="translate(-935.175 -293.435)" fill="#a6dcf7"/><path d="M1714.4,428.558c-7.5-1.433-13.608,24.818-13.608,24.818s10.649,1.751,13.608,8.6C1719.582,458.155,1725.608,430.7,1714.4,428.558Z" transform="translate(-1190.878 -300.032)" fill="url(#u)"/><path d="M1701.93,380.62s-11.135,10.457-9.231,17.731c1.64.956,12.2-14.919,12.2-14.919S1704,380.779,1701.93,380.62Z" transform="translate(-1185.059 -266.506)" fill="#008ea6"/><path d="M1687.246,376.28a.049.049,0,0,0,0,.018,7.109,7.109,0,0,0-.144.738c-.063.381-.1.77-.126,1.169a1.7,1.7,0,0,1-.018.3c-.021.4-.033.8-.042,1.214v.393c0,.273,0,.549-.021.821a14.691,14.691,0,0,1-.237,2.366,1.133,1.133,0,0,1-.06.279c-.024.09-.042.186-.069.276s-.042.159-.069.234a.353.353,0,0,1-.018.066c-.021.072-.048.141-.072.21v.036c-.033.084-.066.165-.1.246s-.063.147-.093.216-.117.231-.183.342c-.036.06-.072.12-.111.18a4.329,4.329,0,0,1-.519.666,10.033,10.033,0,0,0-2.293-4.641h0c1.25-1.337,2.8-2.506,3.75-4.146.063-.12.135-.237.192-.36A5.186,5.186,0,0,0,1687.246,376.28Z" transform="translate(-1178.47 -263.467)" fill="#f4ad9f"/><path d="M248.514,461.937c-1.763,4.8-9.873,27.265-8.452,32.757,2.869-.423,12.955-.234,17.839,7.219,2.123-5.837,4.14-31.639,1.8-34.178-2.036-2.219-7.309-5.268-9.894-6.347a.974.974,0,0,0-1.292.549Z" transform="translate(-167.973 -323.004)" fill="#fc8190"/><rect width="65.352" height="2.336" rx="1.168" transform="translate(149.116 99.495)" fill="#e6f3ff"/><rect width="65.352" height="2.336" rx="1.168" transform="translate(149.116 119.795)" fill="#e6f3ff"/><rect width="65.352" height="2.336" rx="1.168" transform="translate(144.79 104.391)" fill="#e6f3ff"/><rect width="65.352" height="2.336" rx="1.168" transform="translate(144.79 109.422)" fill="#e6f3ff"/><rect width="65.352" height="2.336" rx="1.168" transform="translate(144.79 114.45)" fill="#e6f3ff"/><path d="M585.959,475.35s1.115,3.975-1.349,4.614" transform="translate(-409.339 -332.835)" fill="#f0b9ae"/><path d="M588.38,491.507s4.647.842,6.215-3.277" transform="translate(-411.978 -341.854)" fill="#f0b9ae"/><circle cx="0.902" cy="0.902" r="0.902" transform="translate(178.605 141.612)" fill="#40405a"/><path d="M593.12,468.332s.759-2.354,3.067-.522C596.187,467.81,594.076,466.941,593.12,468.332Z" transform="translate(-415.297 -327.067)" fill="#40405a"/><path d="M580.232,478.821a.9.9,0,1,0-.1-.685A.9.9,0,0,0,580.232,478.821Z" transform="translate(-406.184 -334.312)" fill="#40405a"/><path d="M579.058,472.86s-1.847-1.646-2.908,1.106C576.15,473.957,577.529,472.137,579.058,472.86Z" transform="translate(-403.415 -330.75)" fill="#40405a"/><path d="M629.08,467.195s-1.739-1.3-2.8,2.734c0,0,1.394-1.5,1.553-.411s-.138,1.076-.138,1.076,1.268-1.1.138-1.9c-.384-.3-.968.453-.968.453S627.62,467.195,629.08,467.195Z" transform="translate(-438.516 -326.986)" fill="#f0b9ae"/><path d="M959.085,482.89s-1.565,3.133.711,3.964" transform="translate(-671.175 -338.115)" fill="#f0b9ae"/><path d="M948.924,494.935s-3.643,1.064-5.214-3.055C945.353,493.745,946.42,494.614,948.924,494.935Z" transform="translate(-660.777 -344.409)" fill="#f0b9ae"/><circle cx="0.902" cy="0.902" r="0.902" transform="translate(284.135 142.488)" fill="#40405a"/><path d="M949.194,471.242s-.755-2.354-3.064-.522C946.13,470.72,948.241,469.854,949.194,471.242Z" transform="translate(-662.472 -329.105)" fill="#40405a"/><path d="M965.092,481.689a.9.9,0,1,1,.1-.684.9.9,0,0,1-.1.684Z" transform="translate(-674.576 -336.323)" fill="#40405a"/><path d="M963.63,475.743s1.847-1.643,2.908,1.106C966.538,476.849,965.159,475.032,963.63,475.743Z" transform="translate(-674.725 -332.769)" fill="#40405a"/><path d="M919.73,476.224s1-1.13,1.6,2.372c0,0-.8-1.3-.9-.357s.087.944.087.944-.725-.956-.078-1.646c.219-.255.555.393.555.393S920.566,476.224,919.73,476.224Z" transform="translate(-643.987 -333.325)" fill="#f0b9ae"/><path d="M1080.442,333.09s-.513,3.2,1.724,3.3" transform="translate(-756.48 -233.226)" fill="#ffb5a8"/><path d="M1073.861,346.864s-2.914,1.949-5.442-1.244C1070.393,346.8,1071.568,347.281,1073.861,346.864Z" transform="translate(-748.098 -241.999)" fill="#ffb5a8"/><path d="M1068.084,329.964a.831.831,0,1,0,.052-.641A.834.834,0,0,0,1068.084,329.964Z" transform="translate(-747.834 -230.274)" fill="#40405a"/><path d="M1067.975,324.748s-1.319-1.865-2.845.39C1065.13,325.138,1066.749,323.789,1067.975,324.748Z" transform="translate(-745.794 -226.878)" fill="#40405a"/><path d="M1084.868,330.041a.831.831,0,1,1-.1-.631A.833.833,0,0,1,1084.868,330.041Z" transform="translate(-758.462 -230.375)" fill="#40405a"/><path d="M1081.81,324.954s1.169-1.961,2.869.165C1084.679,325.119,1082.958,323.9,1081.81,324.954Z" transform="translate(-757.473 -226.952)" fill="#40405a"/><path d="M1043.13,361.3s1.382,5.678,4.593,6.848" transform="translate(-730.39 -252.978)" fill="#ffb5a8"/><path d="M363.213,386s-.51,3.2,1.727,3.3" transform="translate(-254.284 -270.273)" fill="#ef515f"/><path d="M356.642,399.754c-.654,1.46-4.2,4.8-5.442-1.244C353.164,399.694,354.348,400.171,356.642,399.754Z" transform="translate(-245.907 -279.033)" fill="#ef515f"/><path d="M350.907,382.865a.83.83,0,1,0,.054-.636A.833.833,0,0,0,350.907,382.865Z" transform="translate(-245.674 -267.318)" fill="#40405a"/><path d="M350.755,377.638s-1.319-1.865-2.845.39C347.91,378.028,349.529,376.679,350.755,377.638Z" transform="translate(-243.603 -263.911)" fill="#40405a"/><path d="M367.647,382.931a.833.833,0,1,1-.624-1,.833.833,0,0,1,.624,1Z" transform="translate(-256.271 -267.408)" fill="#40405a"/><path d="M364.59,377.841s1.169-1.964,2.866.165C367.456,378.006,365.738,376.789,364.59,377.841Z" transform="translate(-255.283 -263.982)" fill="#40405a"/><path d="M1666.677,351.045a.833.833,0,1,1-.543-1.046.834.834,0,0,1,.543,1.046Z" transform="translate(-1165.852 -245.038)" fill="#40405a"/><path d="M1664,345.818s1.319-1.865,2.845.39C1666.857,346.208,1665.238,344.859,1664,345.818Z" transform="translate(-1165.118 -241.631)" fill="#40405a"/><path d="M1656.475,364.44s-.54.507-.9.438a4.5,4.5,0,0,0-.806-.081,3.98,3.98,0,0,0,1.013-.249C1655.86,364.428,1656.445,363.9,1656.475,364.44Z" transform="translate(-1158.653 -255.009)" fill="#ef515f"/><path d="M1697.581,367.09a8.371,8.371,0,0,1-1.121,3.511,7.209,7.209,0,0,1,.144-.738A6.489,6.489,0,0,0,1697.581,367.09Z" transform="translate(-1187.846 -257.032)" fill="#f7ab9d"/><path d="M1672.2,365.665v.117a6.448,6.448,0,0,1-.977,2.773.056.056,0,0,1,0-.018,5.175,5.175,0,0,1-.27.618c-.06.123-.126.24-.192.36a22.113,22.113,0,0,1-3.6,4.269c-.066-.066-.114-.1-.132-.117h0a25.044,25.044,0,0,1-2.959,1.772.881.881,0,0,1-1.145-.318,20.048,20.048,0,0,1-2.722-7.966,1.735,1.735,0,0,1,1.652.087c3.454,2.2,7.226,2.827,8.793-1.886C1670.933,365.036,1671.881,365.35,1672.2,365.665Z" transform="translate(-1162.457 -255.725)" fill="#1c1564"/><path d="M1043.13,329.594s1-1.13,1.6,2.374c0,0-.8-1.3-.9-.36s.09.947.09.947-.726-.956-.081-1.649c.219-.255.555.393.555.393S1043.967,329.594,1043.13,329.594Z" transform="translate(-730.39 -230.657)" fill="#ffb5a8"/><path d="M1708.635,350.674s-1.73-1.13-2.785,2.375c0,0,1.385-1.3,1.544-.36s-.153.947-.153.947,1.262-.956.141-1.649c-.384-.252-.965.393-.965.393S1707.184,350.674,1708.635,350.674Z" transform="translate(-1194.42 -245.417)" fill="#f4ad9f"/><path d="M52.182,176.341h57.351l6.794,7.007v-36.5a7.132,7.132,0,0,0-7.132-7.132H52.182a7.132,7.132,0,0,0-7.132,7.132v22.366A7.132,7.132,0,0,0,52.182,176.341Z" transform="translate(-31.544 -97.823)" fill="#5d52ad"/><path d="M794.764,146.817h52.167l6.182,8.907v-46.4c0-5.007-2.905-9.063-6.488-9.063H794.758c-3.583,0-6.488,4.056-6.488,9.063v28.431C788.276,142.755,791.187,146.817,794.764,146.817Z" transform="translate(-551.939 -70.201)" fill="#5d52ad"/><path d="M1803.393,175.808h-45.34l-5.373,7.043V146.165c0-3.957,2.524-7.165,5.64-7.165h45.073c3.112,0,5.636,3.208,5.636,7.165v22.486C1809.029,172.6,1806.5,175.808,1803.393,175.808Z" transform="translate(-1227.21 -97.326)" fill="#5d52ad"/><path d="M80.94,162.708l11.5-10.829,5.49,9.555,19.748-16.987,4.671,7.007,19.11-17.623" transform="translate(-56.673 -93.706)" fill="none" stroke="#96ff9a" stroke-linecap="round" stroke-miterlimit="10" stroke-width="6.48"/><path d="M273.639,116.68l-11.489,2.662,8.05,8.617Z" transform="translate(-183.555 -81.698)" fill="#96ff9a"/><path d="M861.877,112.91a14.824,14.824,0,0,1,1.847.657,4.62,4.62,0,0,1,2.021,2.135.765.765,0,0,0,.5.42,4.176,4.176,0,0,1,2.857,4.122.492.492,0,0,0,.3.516,5.061,5.061,0,0,1,2.216,6,.339.339,0,0,0,.1.42,4.938,4.938,0,0,1,.9,6.137.656.656,0,0,0,0,.777,4.731,4.731,0,0,1-.57,5.6.69.69,0,0,0-.2.618,5.039,5.039,0,0,1-4.566,5.43.6.6,0,0,0-.528.3,5.465,5.465,0,0,1-9.183-.042c-.1-.141-.18-.3-.3-.453-.237.33-.438.639-.669.923a5.433,5.433,0,0,1-8.808-.4.659.659,0,0,0-.582-.327,5.032,5.032,0,0,1-4.5-4.251c-.057-.444,0-.9-.033-1.349a.6.6,0,0,0-.12-.333,4.743,4.743,0,0,1-.558-5.843.48.48,0,0,0-.03-.561,4.946,4.946,0,0,1-.3-4.6,8.44,8.44,0,0,1,1.13-1.6.423.423,0,0,0,.111-.477,5.064,5.064,0,0,1,2.168-5.915.6.6,0,0,0,.348-.621,4.2,4.2,0,0,1,2.92-4.083.711.711,0,0,0,.375-.3,5.046,5.046,0,0,1,3.87-2.845.2.2,0,0,0,.06-.033h.9a1.225,1.225,0,0,0,.2.057,4.8,4.8,0,0,1,2.968,1.721c.183.219.345.453.477.624.483-.489.923-1,1.424-1.43a4.875,4.875,0,0,1,2.309-.971Zm-15.026,7.2a1.843,1.843,0,0,0,.186,0,4.977,4.977,0,0,1,5.372,4.9.719.719,0,0,1-.66.824c-.4.021-.675-.3-.734-.765a6.324,6.324,0,0,0-.237-1.184,3.6,3.6,0,0,0-3.277-2.425,3.664,3.664,0,0,0-3.094,5.133c.336.708.264.851-.3,1.355a4.3,4.3,0,0,0-1.022,1.2,3.642,3.642,0,0,0,3,5.247c.474.036.782.333.759.732a.69.69,0,0,1-.824.648,7.775,7.775,0,0,1-1.613-.372,8.916,8.916,0,0,1-1.238-.666c-.072.144-.159.3-.222.453a3.355,3.355,0,0,0,.851,3.835,1.013,1.013,0,0,1,.366.977,4.3,4.3,0,0,0,0,1.343,3.522,3.522,0,0,0,3.754,3,.732.732,0,0,1,.54.162,2.316,2.316,0,0,1,.387.567,4.152,4.152,0,0,0,2.563,1.94,4.233,4.233,0,0,0,5.184-3.981,4.161,4.161,0,0,0-4.023-4.44c-.531-.024-.854-.3-.833-.729s.363-.681.9-.66a4.953,4.953,0,0,1,2.327.624c.57.336,1.094.753,1.634,1.13a.826.826,0,0,0,0-.123V125.937a1.388,1.388,0,0,0-1.328-1.463,1.563,1.563,0,0,1-.237-.039.7.7,0,0,1-.516-.666.675.675,0,0,1,.561-.66,1.469,1.469,0,0,1,.549,0c.324.072.639.18.956.273a.277.277,0,0,0,0-.069q0-2.59,0-5.181a3.766,3.766,0,0,0-2.072-3.484,3.217,3.217,0,0,0-4.2,1.3l.366.093a4.1,4.1,0,0,1,1.853,1.049.7.7,0,0,1,.063.971.684.684,0,0,1-.938.084c-.135-.093-.252-.207-.384-.3a2.671,2.671,0,0,0-2.854-.267,2.745,2.745,0,0,0-1.562,2.548Zm24.509,14.613-.3.207a4.551,4.551,0,0,1-2.458.857c-.507.018-.839-.24-.866-.654s.3-.7.795-.738a3.278,3.278,0,0,0,.683-.108,3.58,3.58,0,0,0,2.608-2.881,3.309,3.309,0,0,0-1.379-3.508c-.51-.384-.6-.63-.345-1.145a3.531,3.531,0,0,0-.474-3.993,3.244,3.244,0,0,0-5.127-.066,4.011,4.011,0,0,0-.944,2.4.7.7,0,1,1-1.382-.057,5.994,5.994,0,0,1,.066-.726,5.016,5.016,0,0,1,4.119-4.173,9.846,9.846,0,0,1,1.331,0,2.767,2.767,0,0,0-3-2.827,3.256,3.256,0,0,0-1.763.818.678.678,0,0,1-.968-.057.7.7,0,0,1,.09-1,2.874,2.874,0,0,1,.63-.486c.5-.258,1.019-.471,1.529-.7a3.3,3.3,0,0,0-3.166-1.556,3.742,3.742,0,0,0-3.058,3.625c-.018,1.763,0,3.526,0,5.289v.162c.225-.084.417-.171.6-.225a3.3,3.3,0,0,1,.615-.1.7.7,0,1,1,.117,1.382,1.392,1.392,0,0,0-1.361,1.5V138.79a2.851,2.851,0,0,0,.042.3,3.418,3.418,0,0,1,.225-.273,5.5,5.5,0,0,1,3.739-1.613.729.729,0,0,1,.858.66c.021.414-.3.7-.8.729a4.2,4.2,0,0,0-3.754,5.714,4.122,4.122,0,0,0,5.5,2.491,4,4,0,0,0,2.1-1.952c.18-.348.429-.6.849-.519,2.036.327,4.158-1.928,3.739-4.161a1.2,1.2,0,0,1,.4-1.226,3.315,3.315,0,0,0,.507-4.209Z" transform="translate(-589.032 -79.058)" fill="#a097e5"/><path d="M863.987,157.033a12.563,12.563,0,0,1-1.436-.567,4.758,4.758,0,0,1-2.593-4.047c-.045-.567.21-.9.645-.935s.7.3.744.854a3.484,3.484,0,0,0,3.739,3.3,3.3,3.3,0,0,0,1.766-.651c.123-.09.24-.186.366-.264a.684.684,0,0,1,.824,1.085,4.417,4.417,0,0,1-2.036,1.07.782.782,0,0,0-.714.627,3.448,3.448,0,0,1-3.19,2.318.7.7,0,1,1-.03-1.388,2.1,2.1,0,0,0,1.889-1.3.8.8,0,0,0,.027-.1Z" transform="translate(-602.131 -106.065)" fill="#a097e5"/><path d="M865.481,208.087a.771.771,0,0,1-.42.812.555.555,0,0,1-.7-.1,1.4,1.4,0,0,1-.27-.714,3.841,3.841,0,0,0-2.7-3.376,3.687,3.687,0,0,0-.651-.108c-.54-.042-.857-.3-.839-.729s.369-.687.923-.663a4.981,4.981,0,0,1,4.284,3.223,6.833,6.833,0,0,1,.261.9A5.4,5.4,0,0,1,865.481,208.087Z" transform="translate(-602.092 -142.282)" fill="#a097e5"/><path d="M863.122,188.828a.693.693,0,0,1-.621-1.079,6.233,6.233,0,0,1,5.3-3.109c.6,0,.968.5.729.983a.776.776,0,0,1-.75.408,4.44,4.44,0,0,0-2.764.977,10.741,10.741,0,0,0-1.259,1.37C863.563,188.6,863.4,188.84,863.122,188.828Z" transform="translate(-603.832 -129.283)" fill="#a097e5"/><path d="M882.219,132.888a.69.69,0,1,1-.681-.7A.711.711,0,0,1,882.219,132.888Z" transform="translate(-616.756 -92.558)" fill="#a097e5"/><path d="M906.027,156.94a2.1,2.1,0,0,0,1.772,1.424.951.951,0,0,1,.243.021.693.693,0,1,1-.1,1.379,3.463,3.463,0,0,1-3.226-2.419.564.564,0,0,0-.513-.492,4.434,4.434,0,0,1-2.129-1.037.7.7,0,0,1-.171-1.007.675.675,0,0,1,.989-.1,3.991,3.991,0,0,0,1.946.851,3.5,3.5,0,0,0,3.862-3.229v-.174a.7.7,0,1,1,1.388.06,4.861,4.861,0,0,1-3.3,4.5C906.552,156.8,906.306,156.859,906.027,156.94Z" transform="translate(-631.402 -106.019)" fill="#a097e5"/><path d="M911,208.049a5.1,5.1,0,0,1,4.4-4.821,2.146,2.146,0,0,1,.555,0,.684.684,0,0,1,.03,1.352c-.168.033-.345.024-.516.051a3.766,3.766,0,0,0-3.073,3.439.542.542,0,0,1,0,.069c-.027.537-.3.857-.722.839S910.98,208.607,911,208.049Z" transform="translate(-637.872 -142.285)" fill="#a097e5"/><path d="M911.911,188.886a1.034,1.034,0,0,1-.723-.555,4.854,4.854,0,0,0-2.066-1.85,5.361,5.361,0,0,0-1.943-.474,1.2,1.2,0,0,1-.6-.213.6.6,0,0,1-.171-.723.687.687,0,0,1,.711-.45,6.275,6.275,0,0,1,5.319,3.079.657.657,0,0,1,.024.783A2.533,2.533,0,0,1,911.911,188.886Z" transform="translate(-634.62 -129.268)" fill="#a097e5"/><path d="M905.415,132.891a.693.693,0,1,1-.678-.7A.711.711,0,0,1,905.415,132.891Z" transform="translate(-632.993 -92.557)" fill="#a097e5"/><path d="M1831.282,190.833h-1.427a1.416,1.416,0,0,1-1.535-1.475c-.06-.941-.12-1.949-.195-2.92a1.714,1.714,0,0,0-.141-.39,2.347,2.347,0,0,1-.213-.681,3.155,3.155,0,0,0-.869-2.129,33.529,33.529,0,0,1-2.545-3.115,8.343,8.343,0,1,1,15.182-5.96,8.094,8.094,0,0,1-1.58,6.374c-.71.947-1.5,1.844-2.279,2.734a2.8,2.8,0,0,0-.794,1.982,1.163,1.163,0,0,1-.3.9.459.459,0,0,0-.09.273c-.066.962-.138,1.925-.189,2.887a1.461,1.461,0,0,1-1.58,1.532Zm2.512-5.528a4.145,4.145,0,0,1,1.346-3.082c.666-.726,1.3-1.484,1.895-2.273a7.066,7.066,0,0,0,1.2-6.512,7.268,7.268,0,0,0-11.758-3.331,7.2,7.2,0,0,0-.971,9.777c.731.974,1.556,1.88,2.356,2.8a3.62,3.62,0,0,1,.95,1.937c.027.216.039.438.06.657h.962c-.123-.768-.213-1.5-.366-2.231a27.158,27.158,0,0,0-1.826-5.439c-.12-.273-.18-.534.063-.764s.5-.156.768-.027a1.767,1.767,0,0,0,2.279-.453c.429-.462.672-.459,1.091,0a1.73,1.73,0,0,0,1.586.663c.279-.039.537-.213.816-.261a1.007,1.007,0,0,1,.6.066c.228.126.228.387.144.627-.048.135-.114.264-.171.4a26.941,26.941,0,0,0-1.766,5.46c-.129.645-.2,1.3-.3,1.985h1.031Zm-2.1-.018a23.94,23.94,0,0,1,1.778-7.031,6.038,6.038,0,0,1-1.463-.435,1.131,1.131,0,0,0-1.409,0,5.092,5.092,0,0,1-1.5.438,24.047,24.047,0,0,1,1.781,7.034Zm-2.26,4.074c-.018.273.117.393.33.393h3.052a.3.3,0,0,0,.327-.393Zm3.9-2.914h-4.077c-.06.225,0,.33.228.33h3.631c.252,0,.282-.114.222-.33Zm-3.975,1.772h3.9a1.929,1.929,0,0,1,.018-.321h-3.918a2.871,2.871,0,0,0,.006.321Z" transform="translate(-1276.407 -117.046)" fill="#a097e5" stroke="#a097e5" stroke-miterlimit="10" stroke-width="0.4"/><path d="M1889.22,180.8a.534.534,0,0,1,.513.429.5.5,0,0,1-.318.621c-.33.129-.668.228-1,.339-.486.156-.968.318-1.454.468a.537.537,0,0,1-.7-.324.51.51,0,0,1,.3-.681c.845-.3,1.7-.564,2.551-.842A.558.558,0,0,1,1889.22,180.8Z" transform="translate(-1320.71 -126.594)" fill="#a097e5" stroke="#a097e5" stroke-miterlimit="10" stroke-width="0.4"/><path d="M1807.187,182.093c0,.462-.354.756-.693.654-.836-.252-1.667-.525-2.491-.806a.522.522,0,0,1-.321-.7.531.531,0,0,1,.666-.306c.813.255,1.625.507,2.423.8C1806.968,181.784,1807.1,182.006,1807.187,182.093Z" transform="translate(-1262.892 -126.666)" fill="#a097e5" stroke="#a097e5" stroke-miterlimit="10" stroke-width="0.4"/><path d="M1823.608,159.668c-.126.141-.231.336-.4.42a.494.494,0,0,1-.647-.174c-.261-.345-.513-.7-.768-1.046s-.474-.642-.7-.968a.557.557,0,0,1,.09-.818.546.546,0,0,1,.782.171c.489.657.969,1.322,1.442,1.988a2.88,2.88,0,0,1,.2.429Z" transform="translate(-1275.017 -109.917)" fill="#a097e5" stroke="#a097e5" stroke-miterlimit="10" stroke-width="0.4"/><path d="M1872.641,160.1c-.51,0-.81-.423-.573-.776.5-.753,1.046-1.481,1.6-2.2a.483.483,0,0,1,.689-.072.516.516,0,0,1,.159.708c-.513.735-1.043,1.457-1.58,2.174A.831.831,0,0,1,1872.641,160.1Z" transform="translate(-1310.747 -109.883)" fill="#a097e5" stroke="#a097e5" stroke-miterlimit="10" stroke-width="0.4"/><path d="M1850.123,149.715v1.232a.537.537,0,1,1-1.073,0v-2.53a.537.537,0,1,1,1.073,0C1850.13,148.86,1850.123,149.3,1850.123,149.715Z" transform="translate(-1294.688 -103.544)" fill="#a097e5" stroke="#a097e5" stroke-miterlimit="10" stroke-width="0.4"/><rect width="2.842" height="7.609" rx="1.421" transform="translate(451.519 4.624)" fill="#dbdbdb"/><rect width="2.842" height="7.609" rx="1.421" transform="translate(463.676 13.648) rotate(90)" fill="#dbdbdb"/><rect width="2.842" height="7.609" rx="1.421" transform="translate(454.655 25.802) rotate(180)" fill="#dbdbdb"/><rect width="2.842" height="7.609" rx="1.421" transform="translate(442.495 16.784) rotate(-90)" fill="#dbdbdb"/><rect width="2.842" height="7.609" rx="1.421" transform="translate(202.641 19.47)" fill="#dbdbdb"/><rect width="2.842" height="7.609" rx="1.421" transform="translate(214.798 28.488) rotate(90)" fill="#dbdbdb"/><rect width="2.842" height="7.609" rx="1.421" transform="translate(205.777 40.646) rotate(180)" fill="#dbdbdb"/><rect width="2.842" height="7.609" rx="1.421" transform="translate(193.62 31.624) rotate(-90)" fill="#dbdbdb"/><rect width="2.842" height="7.609" rx="1.421" transform="translate(37.533 230.041)" fill="#dbdbdb"/><rect width="2.842" height="7.609" rx="1.421" transform="translate(49.69 239.062) rotate(90)" fill="#dbdbdb"/><rect width="2.842" height="7.609" rx="1.421" transform="translate(40.669 251.22) rotate(180)" fill="#dbdbdb"/><rect width="2.842" height="7.609" rx="1.421" transform="translate(28.512 242.198) rotate(-90)" fill="#dbdbdb"/><rect width="2.842" height="7.609" rx="1.421" transform="translate(461.763 90.072)" fill="#dbdbdb"/><rect width="2.842" height="7.609" rx="1.421" transform="translate(473.921 99.094) rotate(90)" fill="#dbdbdb"/><rect width="2.842" height="7.609" rx="1.421" transform="translate(464.899 111.251) rotate(180)" fill="#dbdbdb"/><rect width="2.842" height="7.609" rx="1.421" transform="translate(452.742 102.23) rotate(-90)" fill="#dbdbdb"/></g></g></g></svg>