<svg xmlns="http://www.w3.org/2000/svg" width="769.726" height="493.66" viewBox="0 0 769.726 493.66"><defs><style>.a,.aa,.ac,.ad,.af,.ag,.ai,.aj,.al,.an,.ao,.aq,.ar,.as,.au,.b,.c,.e,.g,.o,.p,.q,.s,.t,.u,.w,.x,.z{isolation:isolate;}.b,.i,.y{fill:none;}.aa,.ac,.ad,.af,.ag,.ai,.aj,.al,.an,.ao,.aq,.ar,.as,.au,.b,.c,.e,.g,.o,.p,.q,.s,.t,.u,.w,.x,.z{mix-blend-mode:multiply;}.c{fill:#0350b1;}.d,.e{fill:#fad63a;}.e{opacity:0.77;}.as,.f,.g{fill:#1c1c1c;}.h{fill:#f49968;}.i{stroke:#f49968;stroke-width:3.34px;}.i,.y{stroke-miterlimit:10;}.j,.p{fill:#f39a68;}.k{fill:#fdfeff;}.ai,.al,.l,.u,.w{fill:#ec5612;}.aa,.m,.q,.t{fill:#4a6cb7;}.aj,.ao,.n,.s,.z{fill:#389152;}.ar,.o,.q{opacity:0.57;}.p{opacity:0.34;}.r{fill:#f9d536;}.af,.s{opacity:0.68;}.u{opacity:0.15;}.v{fill:#f23a30;}.x{fill:#bde4e5;opacity:0.53;}.y{stroke:#389152;stroke-width:2.95px;}.z{opacity:0.37;}.aa{opacity:0.36;}.ab,.ac,.ad{fill:#f3a000;}.ac{opacity:0.39;}.ae{fill:#26a84c;}.af{fill:#5ebe7a;}.ah{fill:#ec5610;}.ai{opacity:0.28;}.aj,.as{opacity:0.47;}.ak,.av{fill:#fff;}.al{opacity:0.79;}.am,.an,.ar{fill:#f79f15;}.an{opacity:0.31;}.ao{opacity:0.3;}.ap{fill:#3160c6;}.aq{fill:#7097ef;}.at,.av{font-size:13px;font-family:Montserrat-SemiBold, Montserrat;font-weight:600;}.au{fill:#0f4890;opacity:0.78;}.aw{letter-spacing:-0.01em;}.ax{letter-spacing:0.01em;}</style></defs><g class="a" transform="translate(0 0.002)"><g transform="translate(0 -0.003)"><ellipse class="b" cx="384.863" cy="30.158" rx="384.863" ry="30.158" transform="translate(0 433.344)"/><path class="c" d="M202.647,396.03,70.18,415.607l486.233,2.874,1.154-19.441Z" transform="translate(9.237 52.127)"/><path class="d" d="M244.017,305.337s-29.332-3.87-31.583,28.29-20.516,77.946-10.943,84.5,203.148,0,203.148,0-17.88-110.661-33.6-110.514-54.7,19.305-69.719,14.247S244.017,305.337,244.017,305.337Z" transform="translate(26.157 40.171)"/><path class="e" d="M350.674,311.845l-61.221,4.526-40.342-4.526s-33.53-5.341-23.764,7.48,73.872,15.922,73.069,23.277-25.62,64.966-25.62,64.966l6.586,16.544h7.752s62.092-61.854,69.662-64.661,29.818-12.391,29.818-12.391-10.264-40.048-18.9-39.731S350.674,311.845,350.674,311.845Z" transform="translate(29.425 40.453)"/><path class="f" d="M289.288,148.914s-15.345,5.16-15.458,20.143c-.09,11.893-1.426,13.093-6.79,17.846s-10.117,8.329-8.736,16.261-11.1,9.721-14.869,17.065-7.141,25.439,12.7,31.538,48.2,3.395,48.2,3.395,50.176-.792,50.176-24.794c0,0,1.2-9.426-9.121-14.632s-2.772-8.374-3.395-16.906-9.121-9.721-9.517-12.889,2.388-12.618-3.18-15.763c-6.45-3.644-5.013-8.34-6.45-11.7C314.364,138.537,289.288,148.914,289.288,148.914Z" transform="translate(31.662 19.247)"/><path class="g" d="M268.737,188.71s-8.589,10.275-5.273,19.634-8,6.3-8,6.3h0a3.157,3.157,0,0,1,.837-3.961,5.771,5.771,0,0,0,2.173-4.866C258.473,200.6,268.737,188.71,268.737,188.71Z" transform="translate(33.575 24.84)"/><path class="g" d="M293.789,154.574A20.629,20.629,0,0,0,281.7,173.382c-.079,11.124-1.132,12.233-5.307,16.68s-7.921,7.774-6.79,15.186-8.691,9.053-11.644,15.944-5.579,23.764,9.936,29.422,37.672,3.225,37.672,3.225,39.256-.747,39.256-23.164a14.926,14.926,0,0,0-7.141-13.67c-8.068-4.866-2.173-7.831-2.637-15.843s-7.356-9.053-7.446-12.04c-.226-7.616-3.395-11.61-7.74-14.553-5.047-3.395,1.335-7.921.215-11.1C313.411,144.876,293.789,154.574,293.789,154.574Z" transform="translate(33.656 20.015)"/><path class="h" d="M2.659,0H33.451a2.614,2.614,0,0,1,2.614,2.614V38.973a9.63,9.63,0,0,1-9.63,9.63H9.63A9.63,9.63,0,0,1,0,38.973V2.693A2.659,2.659,0,0,1,2.659.034Z" transform="matrix(0.946, 0.325, -0.325, 0.946, 321.029, 302.834)"/><path class="i" d="M309.316,282.14l9.053,3.123a6.473,6.473,0,0,1,4.017,8.227l-5.149,15.175a6.462,6.462,0,0,1-5.126,4.289L298,315.161" transform="translate(39.222 37.137)"/><path class="j" d="M310.7,193.74l.781,9.347a5.036,5.036,0,0,0,4.821,4.594l8.759.43L304.7,223.456,272.92,208.1l7.978-.294a4.8,4.8,0,0,0,4.651-5.036l-.43-8.8Z" transform="translate(35.921 25.502)"/><path class="k" d="M256.26,219.226l23.289-12.776s19.769,12.8,47.754,0l-14.2,47.46h-28.29Z" transform="translate(33.728 27.175)"/><path class="l" d="M341.844,323.222s-93.573-45.6-108.5-44.891-24.16,34.107-7.107,44.767,108.5,12.787,108.5,12.787,26.865,15.752,38.237,8.646a31.424,31.424,0,0,0,8.928-7.989c2.263-3.112,1.686-5.5-2.06-6.394Z" transform="translate(28.568 36.635)"/><path class="m" d="M233.344,278.371c12.55-.6,80.605,31.5,102.027,41.779a64.649,64.649,0,0,1-6.439,15.605c-20.369-.679-88.266-3.587-102.694-12.618C209.184,312.478,218.43,279.084,233.344,278.371Z" transform="translate(28.569 36.64)"/><path class="n" d="M341.686,211.531a23.515,23.515,0,0,0-23.764-5.228c-.645.226,1.335,35.918-16.85,35.985-12.018,0-15.017-10.558-16.5-35.759,0,0-14.462-5.036-23.051,2.625-12.391,11.033-11.7,65.294-11.7,65.294l11.667,9.415,11.554,22.768,35.6,14.417,23.99-11.927,23.9,2.444-6.02-62.839Z" transform="translate(32.88 26.972)"/><g class="o" transform="translate(245.637 330.729)"><path class="m" d="M218.564,292.26c.487,6.292-1.494,10.6,6.145,18.3,12.719,12.8,72.706,19.158,105.523,5.749-.419.781-.849,16.839-1.3,17.619-20.369-.679-88.266-3.587-102.694-12.618C216.844,315.436,215.441,302.671,218.564,292.26Z" transform="translate(-217.068 -292.26)"/></g><path class="p" d="M280.345,207.827l-3.395.124-.091.17s6.541,3.18,19.1-.441c9.822-2.818,13.466-7.978,14.587-10.105l-.147-1.72-1.607-2.1-24.205.238.43,8.8a4.8,4.8,0,0,1-4.674,5.036Z" transform="translate(36.44 25.504)"/><path class="m" d="M346.1,296.845l-8.713-10.615a120.144,120.144,0,0,1-65.487,9.7c-36.37-5.183,11.984,14.417,11.984,14.417H307.5l22.44,8.77Z" transform="translate(34.003 37.676)"/><path class="j" d="M317.344,171.776c-1.358-13.579-7.367-25.088-23.334-23.764-24.567,2.127-23.051,43.216-9.822,55.789,8.023,7.616,21.308,6.518,27.046-1.132S318.442,182.64,317.344,171.776Z" transform="translate(36.162 19.47)"/><path class="l" d="M262.913,415.336l17.246-20.562,56.988-107.583A15.73,15.73,0,0,1,349.38,279.1c8.725-.815,22.248.69,32.274,14.553,16.035,22.168-89.4,108.036-89.4,108.036s-5.783,27.838-14.032,29.852c-5.477,1.335-15.978-5.828-17.416-9.494-.306-.758-.849-1.4-.611-2.184A13.227,13.227,0,0,1,262.913,415.336Z" transform="translate(34.239 36.714)"/><path class="m" d="M291.555,400.535a62.512,62.512,0,0,1-15.435-6.892l4.526-8.215,54.374-98.236a15.729,15.729,0,0,1,12.255-8.091c8.725-.815,22.248.69,32.274,14.553,12.934,17.88-53.129,77.188-79.213,99.469C296.353,396.6,293.219,399.154,291.555,400.535Z" transform="translate(36.342 36.714)"/><g class="o" transform="translate(325.985 322.333)"><path class="m" d="M377.954,292.874a37.447,37.447,0,0,0-7.774-8.034c.815,3.1.781,7.446-1.188,13.455-5.715,17.517-80.922,100.884-80.922,100.884.645.215,1.279.407,1.912.577,1.664-1.381,4.741-3.938,8.793-7.412C324.825,370.062,390.889,310.754,377.954,292.874Z" transform="translate(-288.07 -284.84)"/></g><path class="n" d="M228.908,281.673a18.106,18.106,0,0,1,.566-8.317c3.033-18.106,18.683-46.012,25.065-56.83a19.034,19.034,0,0,1,14.405-11.418c10.366-1.743,12.923,2.014,14.711,12.391,1.132,6.79,5.794,16.522.973,20.731l-22.112,31.04L243.6,296.486A18.106,18.106,0,0,1,228.908,281.673Z" transform="translate(30.096 26.945)"/><path class="q" d="M349.748,274.55l4.108,4.945s-33.519,31.12-42.605,32.443-40.931-14.473-40.931-14.473Z" transform="translate(35.579 36.138)"/><path class="r" d="M7.039,0H19.328a7.039,7.039,0,0,1,7.039,7.039V33.62a1.912,1.912,0,0,1-1.912,1.912H1.946A1.946,1.946,0,0,1,0,33.586V7.039A7.039,7.039,0,0,1,7.039,0Z" transform="translate(350.983 348.74) rotate(-179.47)"/><path class="r" d="M290.8,307.771l-9.177-4.956a6.133,6.133,0,0,1-3.214-5.454l.1-11.724a6.145,6.145,0,0,1,6.19-6.077l7.016.068v2.8l-6.982-.1a3.4,3.4,0,0,0-3.395,3.3l-.1,11.724a3.4,3.4,0,0,0,1.743,2.976l9.177,4.956Z" transform="translate(36.644 36.798)"/><path class="e" d="M311.511,276.76h-.294l-.1,10.931a21.241,21.241,0,0,1-21.433,21.025h0a7.7,7.7,0,0,1-1.992-.294,7.039,7.039,0,0,0,6.122,3.689l12.278.113a7.039,7.039,0,0,0,7.107-6.971l.249-26.536a1.958,1.958,0,0,0-1.935-1.958Z" transform="translate(37.865 36.429)"/><path class="h" d="M270.423,296.931s12.448,6.993,14.519,5.794a6.1,6.1,0,0,0,2.784-7.367c-.373-1.3.441-3.734,1.482-5.545a5.183,5.183,0,0,0-.781-6.314c-1.279-1.313-6.6.091-7.706-.894-1.279-1.132,2.082-4.2.555-3.983a12.029,12.029,0,0,0-7.118,3.474c-2.263,1.392-2.207,2.263-3.938,4.311l-.679.792Z" transform="translate(35.476 36.673)"/><path class="n" d="M239.527,262.57l-10.445,12.844s-2.014,14.926,34.7,22.813c4.526.985,8.442,2.207,13.1,2.06l.487-.8,1.415-15.537-21.229-16.533Z" transform="translate(30.149 34.562)"/><path class="h" d="M309.088,284.716s4.153.939-2.263,3.9-13.432,4.391-12.188,5.884c1.505,1.8,6.541.317,6.609,1.064s-4.764,1.731-4.741,2.716,1.833,1.788,4.923,1.731-.984.849-.792,2.116,3.666,1.132,4.775.917-3.316,2.456,1.233,1.856c2.184-.294,11.927-4.244,16.284-12.866,2.8-5.534-6.473-10.275-6.473-10.275s-9.517-1.347-11.837-.091C301.178,283.528,309.088,284.716,309.088,284.716Z" transform="translate(38.76 37.005)"/><path class="n" d="M320.3,246.079a16.409,16.409,0,0,1-3.5-5.205c-6.428-2.8,0-11.554,0-19.011,0-10.015-2.75-15.843,7.276-15.843a18.106,18.106,0,0,1,12.3,4.832h0l.091.1a18.176,18.176,0,0,1,2.9,3.474c7.423,9.121,20.064,33.62,24.262,49.995a17.223,17.223,0,0,1-9.438,21.025h0l-33.858,19a52.778,52.778,0,0,0-9.177-15.469l26.4-25.642Z" transform="translate(40.954 27.119)"/><path class="s" d="M265.265,241.4l-9.4,24.262a6.552,6.552,0,0,0,2.082,7.525l17.393,13.579-12.074-13.7a10.015,10.015,0,0,1-2.331-8.465Z" transform="translate(33.618 31.775)"/><path class="s" d="M323.4,236.6l13.512,22.734L316.1,279.545l15.232-19.871Z" transform="translate(41.604 31.144)"/><path class="f" d="M321.176,170.432a12.222,12.222,0,0,0-1.132-5.058,27.272,27.272,0,0,0-3.021-6.326l-.124-.283c1.018-.2,1.211-.713-.826-1.845l-2.546-5.737c-22.033-10.569-34.186,4.719-34.186,4.719l-.6,1.969a17.416,17.416,0,0,0-4.866,10.343c-1.313,12.448-2.263,23.606-8.238,32.591s-2.829,19,2.591,25.722c4.164,5.183-4.526,19.735-4.526,19.735,7-3.995,13.975-12.991,15.481-21.229s-5.749-17.483,0-22.723,3.236-11.486,4.741-16.974,6.5-4.526,15.843-9.732a22.632,22.632,0,0,0,8.2-8.317c.928,1.233,8.442,14.451,17.823,10.026C325.782,177.3,321.086,173.035,321.176,170.432Z" transform="translate(34.537 19.411)"/><path class="k" d="M296.294,117.046c-12.8-12.8-59.58-12.8-72.424,0-8.623,8.623-9.483,41.1,0,48.761a24.137,24.137,0,0,0,4.526,2.784v.588l15.911,14.575-4.64-11.463h0c19.011,4.108,46.136,1.946,56.581-6.507C305.777,158.147,304.905,125.669,296.294,117.046Z" transform="translate(28.571 14.145)"/><path class="k" d="M196.417,240.321c-12.787,12.787-59.568,12.787-72.367,0-8.623-8.623-9.483-41.1,0-48.773a24.4,24.4,0,0,1,4.526-2.784v-.6L122.715,176l17.1,9.053h0c19.022-4.119,46.147-1.958,56.581,6.5C205.9,199.221,205.04,231.7,196.417,240.321Z" transform="translate(15.433 23.168)"/><path class="j" d="M348.881,120.795s-7.593-2.5-11.554-6.371-2.365-4.526-7.571-8.838c-3.644-3.021-7.4-9.166-8.657-8.8s-1.132,3.644.543,5.149a11.7,11.7,0,0,1,2.6,3.395,1.03,1.03,0,0,1-1.335,1.392l-12.651-5.511s-5.658-2.512-6.382-.215,11.124,6.054,10.9,7.039c-.317,1.392-14.462-5.353-15.718-2.433-.973,2.263,12.957,6.45,12.957,6.45s1.573,1.222.2,1.935-12.267-4.21-13.41-2.263,13.975,5.59,13.059,7.3-10.332-1.9-10.456-.2,7.107,3.587,9.732,3.395,6.62,1.369,9.313,2.5,6.292,2.546,9.245,1.075l8.317,5.273Z" transform="translate(39.32 12.739)"/><path class="k" d="M356.7,119.674l-22.474-9.064-8.544,15.809L350.61,137.8Z" transform="translate(42.865 14.561)"/><path class="m" d="M405.019,76.253c5.307-6.28,21.818,3.033,21.818,3.033s14.439,2.184,3.395,33.519c-10.185,29-21.908,51.387-33.439,54.25-10.558,2.637-46.34-13.828-64.5-29.524l10.128-19.237s28.211,10.128,46.249,11.418C388.735,129.677,396.068,86.822,405.019,76.253Z" transform="translate(43.735 9.753)"/><path class="f" d="M403.556,38.33S401.145,72,408.275,86.412s28.166,11.52,28.166,11.52l-7.989-54.85Z" transform="translate(53.063 5.048)"/><path class="j" d="M429.981,51.358l11.384-8.838s-7.084,27.7,3.757,37.66c7.231,6.609-32.172,3.553-32.172,3.553s3.395-11.61,1.03-31.38C413.584,49,429.981,51.358,429.981,51.358Z" transform="translate(54.351 5.599)"/><path class="t" d="M406.154,108.99S397.1,162.176,393.8,163.16s-8.114,2.659-13.387.091c0,0,7.039-.736,8.68-6.043,6.213-20.211,4.2-61.458,4.2-61.458Z" transform="translate(50.069 12.605)"/><path class="j" d="M429.981,51.358l11.384-8.838s-7.084,27.7,3.757,37.66c7.231,6.609-32.172,3.553-32.172,3.553s3.395-11.61,1.03-31.38C413.584,49,429.981,51.358,429.981,51.358Z" transform="translate(54.351 5.599)"/><path class="l" d="M459.84,369.53c.057.792.1,1.448.136,1.912C459.942,370.99,459.9,370.322,459.84,369.53Z" transform="translate(60.523 48.639)"/><path class="l" d="M412.78,405.95l41.938,1.245L412.78,405.95Z" transform="translate(54.329 53.433)"/><path class="l" d="M460,371.62a1.031,1.031,0,0,1,0,.181Z" transform="translate(60.544 48.915)"/><path class="l" d="M443.825,406.021l30.044-10.366c-.985-14.168-9.325-73.2-20.369-95.6-12.629-25.473-17.732-55.811-17.732-55.811l9.675-41.361-15.48-41.134-26.457,1.709s-26.876,99.05-22.632,121.762S445.024,408.047,443.825,406.021Z" transform="translate(50.07 21.292)"/><path class="u" d="M443.825,406.021l30.044-10.366c-.985-14.168-9.325-73.2-20.369-95.6-12.629-25.473-17.732-55.811-17.732-55.811l9.675-41.361-15.48-41.134-26.457,1.709s-26.876,99.05-22.632,121.762S445.024,408.047,443.825,406.021Z" transform="translate(50.07 21.292)"/><path class="l" d="M470.37,393.6c1.482-1.335,2.41-2.456,2.444-3.18h0C472.78,391.144,471.852,392.264,470.37,393.6Z" transform="translate(61.909 51.389)"/><path class="l" d="M465.816,397.19c-1.505,1.064-3.1,2.15-4.7,3.2C462.716,399.34,464.311,398.254,465.816,397.19Z" transform="translate(60.692 52.28)"/><path class="v" d="M460,371.22v0Z" transform="translate(60.544 48.862)"/><path class="v" d="M459.83,369.25h0v.317A2.95,2.95,0,0,0,459.83,369.25Z" transform="translate(60.522 48.603)"/><path class="v" d="M412.78,406.96h0l17.981-8.679Z" transform="translate(54.329 52.423)"/><path class="v" d="M472.673,390.815a7.592,7.592,0,0,0-1.233-3.395,7.593,7.593,0,0,1,1.233,3.395Z" transform="translate(62.05 50.994)"/><path class="v" d="M460.622,372.7l-.622-.679v0Z" transform="translate(60.544 48.942)"/><path class="v" d="M460.55,372.6c.781.951,2.263,2.727,3.915,4.855C462.791,375.316,461.331,373.551,460.55,372.6Z" transform="translate(60.617 49.044)"/><path class="v" d="M464,376.89c2.1,2.671,4.526,5.9,6.45,8.747C468.526,382.786,466.116,379.561,464,376.89Z" transform="translate(61.071 49.608)"/><path class="v" d="M481.093,389.705c-.532-.973-1.211-2.048-1.969-3.191-1.9-2.863-4.345-6.088-6.439-8.759-1.675-2.127-3.135-3.9-3.927-4.855l-.611-.736a1.515,1.515,0,0,1,0-.192.918.918,0,0,1,0-.181c0-.124,0-.26,0-.453,0-.464-.068-1.132-.124-1.912v-.317l-26.457,9.46,1.879,3.157-.8,15.469-9.879,4.764-17.981,8.68,41.938,1.245s6.371-3.734,12.765-7.921c1.6-1.052,3.2-2.139,4.708-3.2a66.443,66.443,0,0,0,5.771-4.526c1.471-1.335,2.4-2.456,2.444-3.18a7.922,7.922,0,0,0-1.313-3.35Z" transform="translate(54.592 48.584)"/><path class="w" d="M427.542,223.528l-.951-38.237s-3.395-10.049-8.351,25.835a56.344,56.344,0,0,1-9.63,24.771c-4.413,6.292-8.612,12.866-6.484,12.448,2.524-.532,6.79-2.591,9.155-3.395-.215,1.007-.43,2.014-.645,3-4.029,5.024-11.724,14.779-8.465,14.711,1.754,0,3.757-.136,5.454-.249a109.465,109.465,0,0,0-2.116,12.787c.124,6.36,28.449,54.159,28.449,54.159Z" transform="translate(52.83 24.22)"/><path class="k" d="M481.093,389.705c-.532-.973-1.211-2.048-1.969-3.191-1.9-2.863-4.345-6.088-6.439-8.759-1.675-2.127-3.135-3.9-3.927-4.855l-.611-.736a1.515,1.515,0,0,1,0-.192.918.918,0,0,1,0-.181c0-.124,0-.26,0-.453,0-.464-.068-1.132-.124-1.912v-.317l-26.457,9.46,1.879,3.157-.8,15.469-9.879,4.764-17.981,8.68,41.938,1.245s6.371-3.734,12.765-7.921c1.6-1.052,3.2-2.139,4.708-3.2a66.443,66.443,0,0,0,5.771-4.526c1.471-1.335,2.4-2.456,2.444-3.18a7.922,7.922,0,0,0-1.313-3.35Z" transform="translate(54.592 48.584)"/><path class="x" d="M481.093,389.705c-.532-.973-1.211-2.048-1.969-3.191-1.9-2.863-4.345-6.088-6.439-8.759-1.675-2.127-3.135-3.9-3.927-4.855l-.611-.736a1.515,1.515,0,0,1,0-.192.918.918,0,0,1,0-.181c0-.124,0-.26,0-.453,0-.464-.068-1.132-.124-1.912v-.317l-26.457,9.46,1.879,3.157-.8,15.469-9.879,4.764-17.981,8.68,41.938,1.245s6.371-3.734,12.765-7.921c1.6-1.052,3.2-2.139,4.708-3.2a66.443,66.443,0,0,0,5.771-4.526c1.471-1.335,2.4-2.456,2.444-3.18a7.922,7.922,0,0,0-1.313-3.35Z" transform="translate(54.592 48.584)"/><path class="k" d="M436.3,382.211l-34.661,17.212a7.785,7.785,0,0,0-4.266,7.853s60.225,4.889,65.147,2.048-4.1-27.555-4.1-27.555Z" transform="translate(52.295 50.25)"/><path class="l" d="M467.561,317.063c.543-11.69-8.2-29.173-8.2-29.173s19.486-55.54,19.351-82.687-13.579-43.375-13.579-43.375c-24.341-9.053-42.922,8.781-42.922,8.781l-5.9,115.832,14.779,124.874,27.521.4S466.746,334.366,467.561,317.063Z" transform="translate(54.794 20.965)"/><path class="m" d="M416.641,74.38a21.015,21.015,0,0,1,3.723,1.482c3.214,1.539,10.535,2.263,26.582-5.341,3.078-1.448,12.7,3.157,16.7,7.786C475.666,92.181,481.46,126.74,476.3,137c-6.88,13.693-3.01,44.767,4.47,59.376s-82.812,23.017-86.127,3.689c-4.017-23.447-1.652-53.627-1.664-71.563,0-10.422-2.942-28.121-.679-42.628C393.9,75.9,403.174,70.782,416.641,74.38Z" transform="translate(51.521 9.249)"/><path class="t" d="M424.67,96.638c-1.969-.34-3.463-1.245-3.135-3.225a3.632,3.632,0,0,1,4.176-2.987,3.3,3.3,0,0,1,2.569,4.108C427.952,96.514,426.65,96.966,424.67,96.638Z" transform="translate(55.475 11.898)"/><path class="t" d="M424.67,109.727c-1.969-.328-3.463-1.245-3.135-3.225a3.632,3.632,0,0,1,4.176-2.976,3.3,3.3,0,0,1,2.569,4.108C427.952,109.546,426.65,110,424.67,109.727Z" transform="translate(55.475 13.622)"/><path class="t" d="M424.67,122.727c-1.969-.328-3.463-1.245-3.135-3.214a3.633,3.633,0,0,1,4.176-2.987,3.3,3.3,0,0,1,2.569,4.108C427.952,122.6,426.65,123.044,424.67,122.727Z" transform="translate(55.475 15.333)"/><path class="t" d="M424.67,135.727c-1.969-.328-3.463-1.233-3.135-3.214a3.632,3.632,0,0,1,4.176-2.987,3.3,3.3,0,0,1,2.569,4.108C427.952,135.648,426.65,136.089,424.67,135.727Z" transform="translate(55.475 17.044)"/><path class="t" d="M424.67,148.808c-1.969-.328-3.463-1.245-3.135-3.225a3.633,3.633,0,0,1,4.176-2.987,3.3,3.3,0,0,1,2.569,4.108C427.952,148.718,426.65,149.136,424.67,148.808Z" transform="translate(55.475 18.764)"/><path class="t" d="M424.67,161.847c-1.969-.328-3.463-1.245-3.135-3.225a3.632,3.632,0,0,1,4.176-2.976,3.3,3.3,0,0,1,2.569,4.108C427.952,161.711,426.65,162.175,424.67,161.847Z" transform="translate(55.475 20.482)"/><path class="t" d="M424.67,174.887c-1.969-.328-3.463-1.245-3.135-3.214a3.633,3.633,0,0,1,4.176-2.988,3.3,3.3,0,0,1,2.569,4.108C427.952,174.774,426.65,175.215,424.67,174.887Z" transform="translate(55.475 22.198)"/><path class="t" d="M424.67,187.938c-1.969-.339-3.463-1.245-3.135-3.225a3.633,3.633,0,0,1,4.176-2.987,3.3,3.3,0,0,1,2.569,4.108C427.952,187.814,426.65,188.266,424.67,187.938Z" transform="translate(55.475 23.915)"/><path class="m" d="M419.422,89.72s-3.995,65.566.124,111.08Z" transform="translate(54.974 11.812)"/><path class="t" d="M469.2,153.61c-.713,0,4.142,13.014,4.142,13.014l-64.932,8.249,20.958-21.263Z" transform="translate(53.754 20.221)"/><path class="j" d="M432.75,153.11s-5.975,4.244-10.977,5.081-4.64-.713-10.637.792c-4.2,1.064-10.784.509-11.192,1.63s2.1,2.8,4.108,2.4a10.671,10.671,0,0,1,3.87-.124.939.939,0,0,1,.306,1.743L397.3,170.99s-4.9,2.784-3.621,4.606,10.513-4.945,11.112-4.244c.86,1-11.791,7.786-10.32,10.3,1.132,1.912,11.791-6.077,11.791-6.077s1.754-.5,1.539.894-9.766,6.79-8.974,8.657,11.7-7.288,12.448-5.658-7,6.609-5.817,7.616,6.5-3.3,7.8-5.33,4.606-4.164,6.892-5.534,5.3-3.259,5.805-6.247l8.408-3.282Z" transform="translate(51.786 20.155)"/><path class="k" d="M434.343,151.56l-15.243,5.1,6.462,13.942,13.4-8.057Z" transform="translate(55.161 19.951)"/><path class="m" d="M441.182,90.4c-.509-7.627,1.482-19.871,1.482-19.871s22.225-6.247,36.483,32.477c10.185,27.747,18.479,48.49,12.618,57.848-5.364,8.555-37.887,17.336-60.112,18.525l-7.344-16.759s28.087-15.6,41.587-16.046C465.9,146.578,442.065,103.271,441.182,90.4Z" transform="translate(55.847 9.237)"/><path class="t" d="M444.836,98.85l18.106,41.87s-17.563-26.989-18.864-31.629C442.211,102.347,444.836,98.85,444.836,98.85Z" transform="translate(58.36 13.013)"/><path class="p" d="M430.8,50,415.6,62.448l-1.018,3.61s14.5,9.189,29.931,6.71-4.526-16.974-4.526-16.974" transform="translate(54.566 6.584)"/><path class="j" d="M400.884,47.782a8.288,8.288,0,0,0,.068,1.3c.7,7.627,5.658,13.444,11.112,18.706,14.009,13.579,35.567-11.78,33.869-26.2C444.022,25.41,433.486,14.1,419.262,14.15c-8.838,0-18.819,2.976-20.426,16.974-.351,3,1.132,5.794,1.494,8.725a66.553,66.553,0,0,1,.555,7.933Z" transform="translate(52.487 1.865)"/><path class="t" d="M440.151,69.18,426.764,76.4l-13.025-6.971c-14.428,4.855,6.043,20.528,6.043,20.528l7.276-9.607,7.061,9.358S454.579,74.023,440.151,69.18Z" transform="translate(53.778 9.108)"/><path class="k" d="M440.151,67.65l-8.114,5.873a8.951,8.951,0,0,1-10.535,0l-7.763-5.658c-14.428,4.843,6.043,19.294,6.043,19.294l7.276-10.592L434.119,86.9S454.579,72.5,440.151,67.65Z" transform="translate(53.778 8.907)"/><path class="f" d="M399.007,34.633c3.225,3.6,14.8,2.071,20.81-1.98,7.989-5.386,15.062.611,17.563,7.695,4.459,12.606-1.132,25.948,4.425,35.159s15.3-6.394,33.224,19.554c0,0-13.093-28.732-14.858-47.992-2.954-32.1-28.834-48.739-54.431-33.258C393.168,21.415,395.013,30.185,399.007,34.633Z" transform="translate(52.123 1.05)"/><path class="n" d="M2.127,0H26.616a2.071,2.071,0,0,1,2.071,2.071V30.984a7.661,7.661,0,0,1-7.661,7.661H7.661A7.661,7.661,0,0,1,0,30.984V2.116A2.116,2.116,0,0,1,2.127,0Z" transform="matrix(0.946, 0.325, -0.325, 0.946, 545.716, 218.052)"/><path class="y" d="M502.724,204.24l7.208,2.478a5.353,5.353,0,0,1,3.078,6.9l-4.447,12.98a5.658,5.658,0,0,1-4.187,3.723L493.06,232.44" transform="translate(64.895 26.884)"/><path class="z" d="M508.631,200.435l-2.874-.984-3.825,11.124a21.037,21.037,0,0,1-26.672,13.048h0a7.989,7.989,0,0,1-2.15-1.132,7.672,7.672,0,0,0,5.081,8.363l12.595,4.3a7.672,7.672,0,0,0,9.732-4.753l9.4-27.351a2.082,2.082,0,0,0-1.29-2.614Z" transform="translate(62.259 26.254)"/><path class="m" d="M431.447,365.678,418.332,397.25s-.883,24.816-4.04,24.726S362.147,410.92,358.515,405c-5.93-9.607,37.536-9.822,37.536-9.822S446.826,329.432,431.447,365.678Z" transform="translate(47.114 46.698)"/><path class="aa" d="M415.456,390.386c-4.063,2.671-10.479,13.059-18.174,13.579-6.416.4-30.067-6.45-39.256-5.805a2.988,2.988,0,0,0,.487,2.263c3.632,5.884,52.62,16.838,55.777,16.974s4.04-24.726,4.04-24.726l.249-.588C417.707,390.431,416.666,389.582,415.456,390.386Z" transform="translate(47.116 51.344)"/><path class="ab" d="M416.524,413.638l.4-1.709L437.866,384.4c21.863-32.76,19.023-64.683,19.023-64.683s.837-22.055-9.449-29.6-18.864,4.741-25.484,15.752c-4.979,8.283-31.685,97.511-31.685,97.511Z" transform="translate(51.366 37.88)"/><path class="ac" d="M416.524,413.638l.4-1.709L437.866,384.4c21.863-32.76,19.023-64.683,19.023-64.683s.837-22.055-9.449-29.6-18.864,4.741-25.484,15.752c-4.979,8.283-31.685,97.511-31.685,97.511Z" transform="translate(51.366 37.88)"/><path class="h" d="M558.308,202.919v15.843L539.5,247.346s18.966-1.811,20.754-2.037,28.607-24.217,28.607-24.217l-6.269-28.913Z" transform="translate(71.008 25.297)"/><path class="p" d="M564.778,186l10.615,6.993,7,9.189s-6.179,11.576-26.287,17.4V203.744Z" transform="translate(73.194 24.484)"/><path class="h" d="M584.865,155.546c12,7,16.974,22.632,8.125,42.368-7.446,16.725-27.068,21.444-37.638,16.691-8.034-3.61-14.473-12.21-12.946-26.254a5.839,5.839,0,0,1-2.976-4.73c-.17-.905,4.176-1.415,8.272-7.548a3.735,3.735,0,0,1,.113-.951C552.682,155.693,567.653,145.52,584.865,155.546Z" transform="translate(70.998 19.96)"/><path class="l" d="M560.709,219.263,500.62,313.357l80.537,48.094S610,287.771,607.875,252.4,591.647,206,591.647,206Z" transform="translate(65.89 27.116)"/><path class="ab" d="M588.193,323.705l3.542,27.623s-20.539,42.515-68.01,28.29-58.1-23.379-58.1-23.379l-41.451-41.451a13.387,13.387,0,0,1-3.327-13.421c2.456-7.865,5.3-17.461,16.442-18.106C451.46,282.48,588.193,323.705,588.193,323.705Z" transform="translate(55.313 37.284)"/><path class="ad" d="M587.733,311.378s-63.371,55.257-104.516,33.043c-16.454-8.894-19.849-36.37-26.457-37.242,0,0,6.79,14.768,6.3,26.989a63.371,63.371,0,0,0,3.18,22.044s52.383,27.464,88.266,23.153C592.928,374.738,587.733,311.378,587.733,311.378Z" transform="translate(60.118 40.433)"/><path class="h" d="M578.932,223.645s14.224,3.791,7.412,28.392S556.5,296.113,529.13,300.7c0,0-15.141,4.459-18.332-13.806-3.3-18.943-1.064-49.791-1.064-49.791s-10.264-7.412-10.264-10.06,0-7.989,4.164-9.053c1.471-.373.86-4.956,3.033-5.771,3.395-1.279,4.923-3.3,6.79-2.546s6.79,7.571,6.79,7.571-3.021-7.4,0-7.672,4.8,6.541,4.8,6.541l-.17,7.288a28.074,28.074,0,0,1-1.539,8.634l-.373,1.132s10.015,27.781,14.179,33.654C537.2,266.8,566.077,220.25,578.932,223.645Z" transform="translate(65.739 27.577)"/><path class="ae" d="M494.18,354.953c68.565,0,88.425-67.241,115.538-58.369s50.04,108.239,52.586,113.331,13.579,14.032,0,16.782-224.207,7.65-215.675,3.927S444.581,354.953,494.18,354.953Z" transform="translate(58.751 38.932)"/><path class="af" d="M576.188,351.023c-18.366,12.448-4.594,11.656,11.859,16.488s19.984,13.681,12.583,20.924.928,6.439,8.838,7.242-17.789,21.354-77.4,20.313c-43.431-.724-78.444,3.18-83.253,9.166a17.368,17.368,0,0,1-.543,1.7c.158,1.132,1.358,2.263,3.689,3.542,33.258,1.607,198.135-2.49,210.1-4.911,13.579-2.75,2.557-11.69,0-16.782-2.014-4.029-16.793-67.094-36.314-97.636a13.251,13.251,0,0,0-23.379,2.127C596.546,327.146,588.692,342.547,576.188,351.023Z" transform="translate(59 40.146)"/><path class="m" d="M460.113,305.536s15.492,27.634,9.822,66.6L465.274,406s5.443,24.228,2.365,24.9-53.243,2.546-58.256-2.263C401.2,420.848,443.2,409.6,443.2,409.6s-23.526-91.231-21.139-100.589,7.4-24.839,19.928-22.451S460.113,305.536,460.113,305.536Z" transform="translate(53.743 37.686)"/><path class="aa" d="M461.922,390.886c-3.248,3.632-6.79,15.3-14.145,17.71-6.111,2.014-30.712,1.4-39.437,4.357a2.908,2.908,0,0,0,1.041,2.071c5.013,4.775,55.178,2.931,58.256,2.263s-2.365-24.9-2.365-24.9l.079-.634C464.117,390.365,462.9,389.811,461.922,390.886Z" transform="translate(53.745 51.376)"/><path class="w" d="M569.175,257.05l18.977.634s-18.977,47.324-73.2,51.613l-13.4-4.266,25.5-39.923Z" transform="translate(66.013 33.835)"/><path class="f" d="M577.946,161.346h0c-2.874,1.482-7.672,2.625-6.111,5.454,1.437,2.614,4.674,11.316,9.528,12.21,11.067,2.127-6.371,37.343.951,33.564s8.148-6.62,15.017-16.974c6.269-9.494,5.319-38.328-8.77-40.059C577.72,154.149,577.946,161.346,577.946,161.346Z" transform="translate(75.223 20.451)"/><path class="l" d="M431.719,337.166,419.78,310.89l6.428,80.662s7.978-9.856,10.739-14.9S431.719,337.166,431.719,337.166Z" transform="translate(55.25 40.921)"/><path class="l" d="M583.682,219.186c-14.258-3.78-46.294,41.587-46.294,41.587-2.987-4.232-8.725-16.058-12.38-23.843L506.28,247.986c-.351,11.848-.339,28.89,1.833,41.315,3.542,20.267,20.369,15.322,20.369,15.322,30.361-5.07,55.9-26.65,63.461-53.944S583.682,219.186,583.682,219.186Z" transform="translate(66.613 28.822)"/><path class="ab" d="M464.182,408.133l-.362-1.709,7.084-33.869c5.658-38.962-10.626-66.6-10.626-66.6s-8.736-20.279-21.263-22.632-19.237,13.851-19.385,26.22c-.147,9.653,16.476,100.589,16.476,100.589Z" transform="translate(55.231 37.263)"/><path class="f" d="M584.451,176.41s-4.526,7.027-5.726,12.448.747,20.9.747,20.9l9.245-11.973Z" transform="translate(76.119 23.221)"/><path class="h" d="M577.87,175.411s1.958-4.674,6.382-3.27c6.1,1.946,5.251,18.162-6.382,15.514" transform="translate(76.058 22.625)"/><path class="w" d="M536.666,259.042l26.118-29.422L532.66,257.707s7.367,7.921,9.268,12.448Z" transform="translate(70.107 30.225)"/><path class="f" d="M577.8,168.423S547.956,172.87,540.77,150.4c0,0,7.672,2.829,14.281,2.478,0,0-6.122-2.478-7.537-6.348a45.039,45.039,0,0,0,14.6,2.263s-3.395-2.342-4.323-3.949a26.842,26.842,0,0,0,13.217,3.961c8.306.464,24.013-.226,29.581,14.315C605.94,177.091,577.8,168.423,577.8,168.423Z" transform="translate(71.175 19.066)"/><g class="ag" transform="translate(654.731 178.357)"><path class="f" d="M593.042,157.61c4.526,10.015,1.392,27.793-4.278,34.186-4.968,5.658-7.4,8.815-10.185,11.079.339,4.934.905,9.347.905,9.347l.238-.294c.238.656.758.826,1.709.351,7.31-3.734,8.148-6.62,15.017-16.974C601.744,187.157,601.846,165.056,593.042,157.61Z" transform="translate(-578.58 -157.61)"/></g><path class="ah" d="M108.71,292.373S170.123,288.051,193,308.8c0,0,6.971,2.263,4.425,35.951l-8.51,58.573,34.469,11.316,1.46,10.558s-57.192,2.591-58.946-.8.272-20.6.272-20.6-7.921-55.246-4.526-72.107S113.9,320.6,113.9,320.6Z" transform="translate(14.308 38.435)"/><path class="ai" d="M108.71,292.373S170.123,288.051,193,308.8c0,0,6.971,2.263,4.425,35.951l-8.51,58.573,34.469,11.316,1.46,10.558s-57.192,2.591-58.946-.8.272-20.6.272-20.6-7.921-55.246-4.526-72.107S113.9,320.6,113.9,320.6Z" transform="translate(14.308 38.435)"/><path class="n" d="M182.351,390.38l-22.746.5s-2.037,17.28-.272,20.6,58.946.792,58.946.792l-1.46-10.558Z" transform="translate(20.876 51.384)"/><path class="aj" d="M182.351,390.38l-22.746.5s-2.037,17.28-.272,20.6,58.946.792,58.946.792l-1.46-10.558Z" transform="translate(20.876 51.384)"/><path class="ak" d="M181.29,397.93a10.286,10.286,0,0,1,2.863-4.334,4.889,4.889,0,0,1,2.422-1.222,2.9,2.9,0,0,1,2.49.837A3.315,3.315,0,0,0,186.71,393a5.353,5.353,0,0,0-2.026,1.211,31.684,31.684,0,0,0-3.395,3.723Z" transform="translate(23.861 51.642)"/><path class="ak" d="M186.31,399.979a10.185,10.185,0,0,1,2.863-4.334,4.787,4.787,0,0,1,2.422-1.211,2.863,2.863,0,0,1,2.49.826,3.4,3.4,0,0,0-2.365-.215,5.433,5.433,0,0,0-2.026,1.166A32.633,32.633,0,0,0,186.31,399.979Z" transform="translate(24.522 51.913)"/><path class="ak" d="M191.62,401.389a10.32,10.32,0,0,1,2.863-4.334,4.877,4.877,0,0,1,2.422-1.211,2.841,2.841,0,0,1,2.49.837,3.4,3.4,0,0,0-2.365-.226A5.591,5.591,0,0,0,195,397.666,32.543,32.543,0,0,0,191.62,401.389Z" transform="translate(25.221 52.098)"/><path class="aj" d="M171.318,401.876c-2.026-1.335-2.818-7.865-2.8-11.226l-8.917.192s-2.037,17.28-.272,20.6,58.946.792,58.946.792l-.385-3.078C208.129,396.964,175.459,404.625,171.318,401.876Z" transform="translate(20.876 51.419)"/><path class="f" d="M107.272,184.31s-3.327,14.089-.306,22.791.385,18.479-7.921,16.816S80,203.887,80,203.887Z" transform="translate(10.529 24.261)"/><path class="al" d="M169.1,353.19,155.61,356.2l.826,9.438s22.632,17.427,28.041,17.732S169.1,353.19,169.1,353.19Z" transform="translate(20.481 46.489)"/><path class="g" d="M107.272,184.31s-3.327,14.089-.306,22.791.385,18.479-7.921,16.816S80,203.887,80,203.887Z" transform="translate(10.529 24.261)"/><path class="am" d="M95.942,245.84l12.244-16.85L125.749,268.7l32.1,33.19L131.26,322.665l-46-62.216Z" transform="translate(11.222 30.142)"/><path class="an" d="M95.942,245.84l12.244-16.85L125.749,268.7l32.1,33.19L131.26,322.665l-46-62.216Z" transform="translate(11.222 30.142)"/><path class="h" d="M101.74,197.492l-1.652,11,6.993,25.609s-13.579-5.4-14.858-5.941S76.38,204.18,76.38,204.18l10.264-20.12Z" transform="translate(10.053 24.228)"/><path class="p" d="M94.295,183.37l-13.025.713s6.394,22.836,18.219,25.224l2.127-14.428Z" transform="translate(10.697 24.138)"/><path class="h" d="M94.1,152.992c-11.1,2.772-18.592,14-16.182,31.629,2.037,14.937,16.465,23.187,25.914,21.863,7.186-1,14.258-6.314,16.3-17.778a4.776,4.776,0,0,0,3.395-3.055c.351-.679-2.976-2.082-4.8-7.865a3.225,3.225,0,0,0,.124-.792C119.521,160.517,110.027,149.02,94.1,152.992Z" transform="translate(10.196 20.035)"/><path class="ah" d="M79.222,286.737s54.465-10.185,96.289,22.214c22.044,17.042,63.167,91.808,63.167,91.808s15.594,8.261,24.839,9.189,9.845,15.843,9.845,15.843-49.124,1.358-51.511-.69-.973-16.918-.973-16.918-52.688-33.281-59.07-57.169a2.263,2.263,0,0,0-2.037-1.663L80.444,345.49c-22.349-1.132-34.922-21.614-30.554-43.567.905-4.526,2.5-8.091,5.138-9.449C66.344,286.567,79.222,286.737,79.222,286.737Z" transform="translate(6.453 37.543)"/><path class="n" d="M243.88,396.5c-8.906-.894-23.7-8.589-24.771-9.155l-17.868,7.378s-3.021,14.847-.634,16.9,53.118.713,53.118.713S253.114,397.433,243.88,396.5Z" transform="translate(26.283 50.985)"/><path class="ao" d="M250.624,411.868l-7.322-7.514a6.054,6.054,0,0,0-4.311-1.833l-20.369-.091a8.872,8.872,0,0,1-8-5.16l-2.659-5.85-6.722,2.772s-3.021,14.847-.634,16.9C202.632,412.819,239.568,412.117,250.624,411.868Z" transform="translate(26.283 51.521)"/><path class="ak" d="M216.54,395.409a10.253,10.253,0,0,1,2.863-4.334,4.877,4.877,0,0,1,2.422-1.211,2.863,2.863,0,0,1,2.49.826,3.4,3.4,0,0,0-2.365-.215,5.589,5.589,0,0,0-2.026,1.211A31.523,31.523,0,0,0,216.54,395.409Z" transform="translate(28.5 51.311)"/><path class="ak" d="M221.55,397.459a10.365,10.365,0,0,1,2.863-4.334,4.877,4.877,0,0,1,2.422-1.211,2.841,2.841,0,0,1,2.49.837,3.327,3.327,0,0,0-2.354-.226,5.5,5.5,0,0,0-2.026,1.211,32.631,32.631,0,0,0-3.395,3.723Z" transform="translate(29.16 51.581)"/><path class="ak" d="M226.86,398.869a10.433,10.433,0,0,1,2.863-4.334,4.968,4.968,0,0,1,2.422-1.211,2.874,2.874,0,0,1,2.49.837,3.394,3.394,0,0,0-2.354-.226,5.657,5.657,0,0,0-2.026,1.211A32.622,32.622,0,0,0,226.86,398.869Z" transform="translate(29.859 51.767)"/><path class="am" d="M82.572,197.52s-22.361,9.245-27.883,24.737c-6.79,19.09.317,56.785-7.129,94.185-2.591,13,54.861,13.025,75.072-8.023,9.947-10.354-2.942-41.542-4.526-58.357s-14.2-42.617-14.2-42.617,4.753,13.919-.554,14.711S82.572,197.52,82.572,197.52Z" transform="translate(6.249 26)"/><path class="ap" d="M45.024,342.518s.634-17.11,27.057-7.763c13.138,4.651,52.054,6.62,83.479,8.148,17.88.871,20.754,73.261,10.5,77.606S50.139,426,44.571,422.218,36.944,362.027,45.024,342.518Z" transform="translate(5.22 43.695)"/><path class="aq" d="M170.533,411.176c-2.048-.068-5.217.441-8.329.6-8.306.441-9.053,1.8-15.843-3.067s-61.775-.373-72.774-3.689,27.906-3.655,42.8-12.131-20.471-6.009-37.864-6.246S74,376.017,86.93,368.99s-11.316-7.355-23.764-9.517-4.662-11.033-9.279-24.307a13.886,13.886,0,0,0-1.132-2.456,11.158,11.158,0,0,0-7.706,9.709c-8.08,19.509-6.122,75.932-.5,79.7s111.283,2.625,121.536-1.709c.69-.634,1.3-1.2,1.867-1.754A21.761,21.761,0,0,0,170.533,411.176Z" transform="translate(5.218 43.793)"/><path class="al" d="M156.245,334.343c-6.982-1.245-13.715,8.238-13.715,8.238a10.967,10.967,0,0,0,3.7.238c2.772-.1,3.27,1.72,3.27,1.72l.181-.453a16.658,16.658,0,0,1,3.949-5.658C154.729,337.365,158,334.649,156.245,334.343Z" transform="translate(18.759 43.993)"/><path class="h" d="M128.32,291.871l6.79-8.091,21.433,12.289s13.308,13.772,10.343,13.579-10.92-6.79-13.579-7.1-8.351.6-14.541-1.233S128.32,291.871,128.32,291.871Z" transform="translate(16.889 37.353)"/><path class="ar" d="M61.618,282.78,47.71,285.473s.962,13.263,13.647,16.442C74.937,305.31,131.1,293.2,131.1,293.2Z" transform="translate(6.279 37.222)"/><path class="f" d="M105.27,147.17s19.781,6.043,13.206,17.438c-7.016,12.176-18.3,4.526-24.477,12.176s11.124,39.8-6.529,49.225c-9.325,4.99-19.034-15.322-30.192-3.044,0,0-8.306,8.578-9.777,35.94,0,0-7.8-42.651,4.164-69.176S78.235,142.757,105.27,147.17Z" transform="translate(5.923 19.294)"/><path class="am" d="M76.182,228.74,77.2,272.68l70.16,21.331-6.846,10.083s-71.711,4.176-86.659-.079c-7.921-2.263-8.623-17.563-7.921-26.944S45.629,225.5,58.1,213.825c7.027-6.575,11.871-2.41,14.711,2.478A25.6,25.6,0,0,1,76.182,228.74Z" transform="translate(6.018 27.699)"/><path class="h" d="M93.368,173.009s-1.878-5.194-7.1-1.505-1.233,14.315,6.971,10.434" transform="translate(11.046 22.402)"/><path class="ar" d="M76.177,237.94,73.54,269.059l28.37,8.634-24.386-11.3Z" transform="translate(9.679 31.32)"/><path class="as" d="M87.47,224.768c11.112-5.941,8.363-20.867,6.348-33.032-.713,19.713-11.056,30.361-13.342,16.137-2.557-15.843-15.492-6.439-22.927-8.521S71.967,156.8,72.386,156c-8.317,7.865-14.836,19.419-20.72,32.455-10.773,23.922-5.534,60.9-4.4,68.01l.294-.226c1.675-26.22,9.687-34.514,9.687-34.514C68.436,209.446,78.146,229.759,87.47,224.768Z" transform="translate(5.922 20.535)"/><text class="at" transform="translate(162.206 242.732)"><tspan x="0" y="0">Hola</tspan></text><text class="at" transform="translate(272.233 158.042)"><tspan x="0" y="0">Hello</tspan></text><path class="k" d="M474.54,113.685c12.8-12.787,59.58-12.787,72.424,0,8.612,8.623,9.483,41.1,0,48.761a23.567,23.567,0,0,1-4.527,2.8v.6l5.817,12.165-17.1-9.053h0c-19.011,4.119-46.136,1.958-56.581-6.507C465.057,154.786,465.917,122.308,474.54,113.685Z" transform="translate(61.564 13.704)"/><text class="at" transform="translate(551.098 153.041)"><tspan x="0" y="0">Aloha</tspan></text><path class="au" d="M293.16,9.6c12.8-12.8,87.768-12.8,100.567,0,8.623,8.623,9.483,41.1,0,48.761a23.764,23.764,0,0,1-4.526,2.784v.611l5.817,12.165-17.1-9.053h0c-18.977,4.164-74.291,1.9-84.758-6.507C283.688,50.7,284.537,18.219,293.16,9.6Z" transform="translate(37.691 0.003)"/><text class="av" transform="translate(335.66 37.57)"><tspan x="0" y="0">buongio</tspan><tspan class="aw" y="0">r</tspan><tspan class="ax" y="0">n</tspan><tspan y="0">o</tspan></text><path class="j" d="M428.18,37.643s1.132-6.688,5.4-5.353,5.172,14-1.754,14" transform="translate(56.356 4.23)"/><path class="w" d="M448.27,283.352l6.88-10.422,2.354,5.217Z" transform="translate(59 35.925)"/></g></g></svg>